<?xml version="1.0" standalone="no"?>
<!DOCTYPE svg PUBLIC "-//W3C//DTD SVG 1.1//EN" "http://www.w3.org/Graphics/SVG/1.1/DTD/svg11.dtd" >
<svg xmlns="http://www.w3.org/2000/svg">
<metadata></metadata>
<defs>
<font id="sstitalic" horiz-adv-x="1103" >
<font-face units-per-em="2048" ascent="1577" descent="-471" />
<missing-glyph horiz-adv-x="532" />
<glyph unicode="&#xfb01;" horiz-adv-x="1179" d="M125 948l31 133h221l18 84q25 114 78 186t159 113t269 41q174 0 318 -24l-39 -131q-132 22 -303 22q-151 0 -224.5 -53t-99.5 -178l-12 -60h610l-229 -1081h-168l200 948h-444l-199 -948h-164l199 948h-221z" />
<glyph unicode="&#xfb02;" horiz-adv-x="1179" d="M125 948l31 133h221l18 84q25 114 78 186t159 113t269 41q181 0 334 -26l-313 -1479h-168l288 1366q-74 6 -163 6q-152 0 -226 -53t-100 -178l-12 -60h252l-31 -133h-252l-199 -948h-164l199 948h-221z" />
<glyph unicode="&#xfb03;" horiz-adv-x="1804" d="M125 948l31 133h219l18 84q14 65 30.5 112.5t44.5 92.5t66 73t95 45t131 17q81 0 155 -20l-28 -123q-59 16 -125 16q-52 0 -88 -14.5t-59.5 -47t-37 -72t-26.5 -101.5l-12 -62h462l19 84q25 114 78 186t159 113t269 41q173 0 317 -24l-39 -131q-132 22 -303 22 q-151 0 -224 -53t-99 -178l-13 -60h611l-230 -1081h-168l201 948h-444l-199 -948h-164l199 948h-461l-199 -948h-164l199 948h-221z" />
<glyph unicode="&#xfb04;" horiz-adv-x="1804" d="M125 948l31 133h219l18 84q14 65 30.5 112.5t44.5 92.5t66 73t95 45t131 17q81 0 155 -20l-28 -123q-59 16 -125 16q-52 0 -88 -14.5t-59.5 -47t-37 -72t-26.5 -101.5l-12 -62h462l19 84q25 114 78 186t159 113t269 41q181 0 334 -26l-314 -1479h-168l289 1366 q-73 6 -164 6q-151 0 -225 -53t-100 -178l-13 -60h252l-31 -133h-251l-199 -948h-164l199 948h-461l-199 -948h-164l199 948h-221z" />
<glyph horiz-adv-x="2048" />
<glyph horiz-adv-x="2048" />
<glyph unicode="&#xd;" horiz-adv-x="2048" />
<glyph unicode=" "  horiz-adv-x="532" />
<glyph unicode="&#x09;" horiz-adv-x="532" />
<glyph unicode="&#xa0;" horiz-adv-x="532" />
<glyph unicode="!" horiz-adv-x="624" d="M137 0l41 199h193l-41 -199h-193zM248 408l188 1054h201l-258 -1054h-131z" />
<glyph unicode="&#x22;" horiz-adv-x="800" d="M334 1049l59 456h185l-138 -456h-106zM639 1049l59 456h183l-136 -456h-106z" />
<glyph unicode="#" horiz-adv-x="1136" d="M78 442l26 123h226l119 336h-224l27 123h242l151 438h127l-154 -438h275l151 438h127l-151 -438h186l-26 -123h-205l-117 -336h197l-27 -123h-215l-151 -442h-130l156 442h-274l-154 -442h-127l154 442h-209zM459 565h272l119 336h-277z" />
<glyph unicode="$" horiz-adv-x="1067" d="M86 94l45 137q135 -66 293 -77l117 542q-125 86 -185.5 173.5t-60.5 199.5q0 88 33.5 157.5t91 113t127 68t149.5 30.5l37 166h129l-37 -168q133 -9 238 -54l-41 -137q-119 50 -225 55l-109 -514q133 -98 193.5 -183t60.5 -200q0 -91 -34.5 -163.5t-94 -117.5t-132.5 -71 t-157 -33l-37 -178h-129l37 178q-169 10 -309 76zM459 1083q0 -62 27 -111t92 -104l90 428q-92 -15 -150.5 -67.5t-58.5 -145.5zM555 162q102 18 162.5 75.5t60.5 151.5q0 118 -127 227z" />
<glyph unicode="%" horiz-adv-x="1630" d="M209 0l1233 1462h127l-1233 -1462h-127zM268 965q0 68 11.5 135.5t39 134t67.5 116.5t101.5 81.5t137.5 31.5q112 0 173.5 -69t61.5 -195q0 -69 -12 -137t-39.5 -134t-68 -115.5t-102 -80.5t-136.5 -31q-109 0 -171.5 70t-62.5 193zM403 967q0 -68 27 -110t82 -42 q56 0 99.5 40t67 101t35 123.5t11.5 118.5q0 154 -111 154q-56 0 -99 -41t-66 -103.5t-34.5 -124.5t-11.5 -116zM920 262q0 68 11.5 135.5t38.5 134t67 117t101.5 82t137.5 31.5q112 0 173.5 -70t61.5 -196q0 -69 -12 -136.5t-39.5 -133.5t-68 -115.5t-102 -80t-136.5 -30.5 q-109 0 -171 69.5t-62 192.5zM1055 264q0 -68 27 -109.5t81 -41.5q56 0 99.5 39.5t67 100.5t35 123t11.5 118q0 155 -110 155q-56 0 -99 -41t-66 -103.5t-34.5 -124.5t-11.5 -116z" />
<glyph unicode="&#x26;" horiz-adv-x="1423" d="M123 346q0 319 416 477q-97 146 -97 277q0 187 115.5 287t288.5 100q150 0 237.5 -80t87.5 -213q0 -79 -29 -144t-85.5 -116t-127.5 -90t-167 -76l223 -328q41 56 102.5 158t98.5 178h184q-56 -100 -145.5 -237.5t-147.5 -210.5l228 -328h-203l-131 197 q-106 -119 -209 -170.5t-250 -51.5q-175 0 -282 101t-107 270zM299 352q0 -107 65 -172t168 -65q202 0 351 198l-271 400q-158 -60 -235.5 -144.5t-77.5 -216.5zM606 1108q0 -118 80 -229q70 24 123.5 51t101.5 64t73.5 87t25.5 111q0 73 -46.5 117.5t-127.5 44.5 q-104 0 -167 -69t-63 -177z" />
<glyph unicode="'" horiz-adv-x="495" d="M334 1049l59 456h185l-138 -456h-106z" />
<glyph unicode="(" horiz-adv-x="634" d="M78 182q0 407 146 789.5t382 660.5h158q-251 -303 -394 -683.5t-143 -772.5q0 -323 105 -575h-148q-49 119 -77.5 271.5t-28.5 309.5z" />
<glyph unicode=")" horiz-adv-x="634" d="M-37 -399q251 303 394 683.5t143 772.5q0 323 -105 575h148q49 -119 77.5 -271.5t28.5 -309.5q0 -407 -146 -789.5t-382 -660.5h-158z" />
<glyph unicode="*" horiz-adv-x="845" d="M203 1169l39 107l268 -86v272h113v-272l268 86l39 -107l-268 -86l172 -241l-93 -70l-176 248l-174 -248l-92 70l172 241z" />
<glyph unicode="+" d="M143 582v127h402v401h133v-401h399v-127h-399v-430h-133v430h-402z" />
<glyph unicode="," horiz-adv-x="571" d="M8 -289l191 488h190l-270 -488h-111z" />
<glyph unicode="-" horiz-adv-x="819" d="M176 545l31 141h514l-31 -141h-514z" />
<glyph unicode="." horiz-adv-x="571" d="M113 0l43 207h206l-43 -207h-206z" />
<glyph unicode="/" horiz-adv-x="1009" d="M-12 0l1007 1462h172l-1007 -1462h-172z" />
<glyph unicode="0" horiz-adv-x="1255" d="M145 449q0 84 10.5 175.5t34.5 193.5t60 196.5t91.5 181.5t123 151t160 102t198.5 38q199 0 306.5 -128t107.5 -347q0 -86 -11.5 -179.5t-37 -195t-62.5 -196t-92.5 -180t-122.5 -148.5t-157 -100.5t-191 -37.5q-213 0 -315.5 125.5t-102.5 348.5zM319 461 q0 -160 61 -250t193 -90q72 0 137 33t113.5 89t89 130.5t68 156t46.5 166.5t27.5 161.5t8.5 141.5q0 161 -62 251.5t-188 90.5q-75 0 -141 -33t-115.5 -88t-90 -129.5t-67.5 -155t-45.5 -166.5t-26.5 -163t-8 -145z" />
<glyph unicode="1" horiz-adv-x="815" d="M172 1212l432 250h199l-309 -1462h-177l273 1288l-354 -209z" />
<glyph unicode="2" horiz-adv-x="1087" d="M2 0l33 162q275 201 446.5 341t270.5 250.5t134.5 190.5t35.5 168q0 109 -70 169t-190 60q-162 0 -330 -86l-41 131q184 101 379 101q209 0 318.5 -98.5t109.5 -266.5q0 -48 -8.5 -94.5t-28.5 -93t-44 -89t-63.5 -90.5t-78 -89.5t-96.5 -93.5t-109.5 -95.5t-127.5 -102 t-140 -106.5t-156 -116v-7h704l-30 -145h-918z" />
<glyph unicode="3" horiz-adv-x="1091" d="M31 55l57 144q150 -78 330 -78q76 0 142 17.5t119.5 53.5t84.5 96.5t31 139.5q0 55 -21 99t-56 72t-84 46.5t-102 26.5t-112 8h-119l31 145h119q70 0 132 9t121 32t101.5 58t68 90t25.5 125q0 98 -67.5 150t-182.5 52q-160 0 -311 -67l-29 137q165 76 359 76 q178 0 289.5 -86.5t111.5 -249.5q0 -162 -95.5 -261t-264.5 -136v-4q126 -25 193 -112t67 -202t-42.5 -204.5t-117 -144.5t-170.5 -83.5t-207 -28.5q-235 0 -401 80z" />
<glyph unicode="4" horiz-adv-x="1193" d="M33 350l39 182l798 930h271l-205 -962h201l-31 -150h-201l-74 -350h-172l74 350h-700zM233 500h531l174 817h-4z" />
<glyph unicode="5" horiz-adv-x="1122" d="M43 53l49 146q160 -78 344 -78q84 0 156.5 21t130 63.5t90.5 112t33 159.5q0 144 -95 214.5t-249 70.5q-123 0 -281 -29l187 729h722l-30 -145h-568l-112 -422q85 10 139 10q95 0 177 -24.5t146 -73t101 -128.5t37 -183q0 -247 -161 -384t-423 -137q-233 0 -393 78z" />
<glyph unicode="6" horiz-adv-x="1189" d="M152 442q0 114 21.5 233.5t62.5 237t106.5 220.5t148 182.5t193 125.5t234.5 46q144 0 249 -45l-49 -137q-82 36 -203 36q-83 0 -160 -31.5t-137.5 -85t-111.5 -125.5t-85.5 -151t-55.5 -164h4q62 82 157.5 128t196.5 46q97 0 173 -31t122.5 -85t70 -123t23.5 -148 q0 -92 -21.5 -178.5t-66.5 -162.5t-108.5 -132.5t-153 -89.5t-193.5 -33q-96 0 -170 27t-119.5 71.5t-75 106.5t-41 126t-11.5 136zM319 434q0 -61 12 -113t40 -99t81 -74t126 -27q90 0 161.5 36t115 97.5t66.5 137.5t23 161q0 112 -61.5 188t-184.5 76 q-158 0 -268.5 -110.5t-110.5 -272.5z" />
<glyph unicode="7" horiz-adv-x="1013" d="M213 0q93 305 298.5 668t455.5 649h-697l31 145h885l-31 -147q-277 -310 -474.5 -658t-291.5 -657h-176z" />
<glyph unicode="8" horiz-adv-x="1191" d="M90 358q0 87 34 161.5t89.5 124.5t119 82.5t130.5 47.5v4q-89 36 -142 110t-53 171q0 79 28 148t77 119.5t113 87t137 55t149 18.5q84 0 158 -20.5t136 -62t98 -113t36 -165.5q0 -157 -88.5 -250.5t-226.5 -123.5v-4q97 -37 163 -118t66 -206q0 -90 -31 -165t-84 -127 t-125 -88t-152 -52.5t-167 -16.5q-128 0 -231 40t-168.5 128.5t-65.5 214.5zM264 381q0 -64 25 -114.5t67.5 -81.5t94.5 -47.5t110 -16.5q159 0 269 79.5t110 221.5q0 63 -28 114.5t-73 83t-97.5 48t-104.5 16.5q-67 0 -132 -19t-119.5 -55t-88 -95.5t-33.5 -133.5z M442 1063q0 -113 75 -174.5t183 -61.5q51 0 105 16.5t105 49t83.5 89.5t32.5 128q0 105 -73 168t-191 63q-138 0 -229 -76t-91 -202z" />
<glyph unicode="9" horiz-adv-x="1189" d="M145 20l50 138q84 -37 206 -37q110 0 203.5 46t159.5 126.5t111.5 176.5t72.5 208h-4q-62 -82 -157.5 -128t-196.5 -46q-97 0 -173 31t-122.5 85t-70 123t-23.5 148q0 92 21.5 178.5t66.5 162.5t108 132.5t152.5 89.5t193.5 33q96 0 170 -27t120 -71.5t75.5 -106.5 t41 -126t11.5 -136q0 -98 -14 -199.5t-44 -204t-73.5 -196t-106.5 -175.5t-139 -141.5t-175 -94t-210 -34.5q-149 0 -254 45zM369 909q0 -53 14 -99.5t42.5 -84t77 -59t111.5 -21.5q158 0 268.5 110.5t110.5 272.5q0 61 -12 113t-39.5 99t-80.5 74t-126 27q-90 0 -161.5 -36 t-115 -97.5t-66.5 -137.5t-23 -161z" />
<glyph unicode=":" horiz-adv-x="686" d="M158 0l43 207h207l-43 -207h-207zM342 877l45 204h207l-45 -204h-207z" />
<glyph unicode=";" horiz-adv-x="686" d="M23 -289l190 488h190l-270 -488h-110zM342 877l45 204h207l-45 -204h-207z" />
<glyph unicode="&#x3c;" d="M143 541v182l934 338v-135l-809 -289v-4l809 -293v-135z" />
<glyph unicode="=" d="M143 391v127h934v-127h-934zM143 772v127h934v-127h-934z" />
<glyph unicode="&#x3e;" d="M143 205v135l807 293v4l-807 289v135l934 -338v-182z" />
<glyph unicode="?" horiz-adv-x="950" d="M238 0l41 199h202l-41 -199h-202zM324 1405q158 82 352 82q75 0 140.5 -19t119 -57.5t84.5 -102.5t31 -147q0 -64 -19 -120.5t-40 -92.5t-72 -81t-76 -63t-92 -62q-5 -3 -7 -5q-59 -39 -94.5 -68t-68.5 -66.5t-53 -82.5t-33 -106l-11 -47h-149l14 69q27 131 85.5 215.5 t172.5 163.5l78 53q101 68 146 129t45 156q0 94 -65.5 141t-164.5 47q-151 0 -299 -71z" />
<glyph unicode="@" horiz-adv-x="1935" d="M123 371q0 232 76 437t212.5 355t336.5 237t436 87q324 0 522.5 -183.5t198.5 -486.5q0 -81 -15 -165t-44 -168.5t-77 -158.5t-109 -131t-144.5 -90.5t-178.5 -33.5q-92 0 -146 41t-54 110q0 21 2 35h-4q-39 -69 -125 -127.5t-191 -58.5q-129 0 -194.5 84.5t-65.5 218.5 q0 89 24 184t72 183.5t112 159t151.5 113t183.5 42.5q95 0 162.5 -46t81.5 -112h4l49 121h143l-192 -471q-76 -184 -76 -250q0 -46 23.5 -68t74.5 -22q101 0 186.5 84t134 224t48.5 300q0 244 -153 388.5t-419 144.5q-203 0 -371.5 -80t-278.5 -214.5t-170 -308.5t-60 -366 q0 -129 40.5 -240t117.5 -195.5t199.5 -133t277.5 -48.5q284 0 516 105l8 -135q-268 -111 -539 -111q-190 0 -342.5 61t-248 165.5t-145.5 238.5t-50 285zM723 395q0 -188 137 -188q55 0 105 23.5t88.5 62t71 88.5t55 102.5t38.5 104t23.5 93t7.5 69.5q0 168 -162 168 q-76 0 -146.5 -55.5t-116.5 -136.5t-73.5 -170.5t-27.5 -160.5z" />
<glyph unicode="A" horiz-adv-x="1320" d="M-74 0l871 1462h235l182 -1462h-186l-49 438h-602l-258 -438h-193zM455 588h512l-80 739z" />
<glyph unicode="B" horiz-adv-x="1241" d="M98 0l310 1462h448q179 0 287 -81t108 -242q0 -307 -329 -385v-4q106 -23 174.5 -102.5t68.5 -194.5q0 -93 -36.5 -174.5t-105 -144t-174.5 -98.5t-237 -36h-514zM301 145h313q61 0 115 10t102.5 33t83.5 57.5t55.5 86.5t20.5 117q0 112 -85.5 171.5t-225.5 59.5h-266z M444 825h267q165 0 264.5 74.5t99.5 220.5q0 55 -23.5 94.5t-64 61t-87 31.5t-101.5 10h-250z" />
<glyph unicode="C" horiz-adv-x="1167" d="M170 561q0 140 36 275.5t107 252.5t168.5 206t230 140.5t281.5 51.5q69 0 149.5 -12.5t135.5 -32.5l-49 -142q-106 41 -248 41q-115 0 -217 -43.5t-177.5 -118.5t-131 -173.5t-83.5 -210.5t-28 -226q0 -98 23.5 -177.5t73.5 -141t134.5 -95.5t198.5 -34q129 0 250 37 v-146q-130 -37 -283 -37q-149 0 -261.5 45t-178.5 126t-98.5 184.5t-32.5 230.5z" />
<glyph unicode="D" horiz-adv-x="1413" d="M98 0l310 1462h368q304 0 449 -148t145 -411q0 -144 -33.5 -275.5t-105 -246.5t-174 -199.5t-250 -133t-324.5 -48.5h-385zM301 145h180q174 0 312 59t225 161t132.5 234.5t45.5 285.5q0 208 -110.5 320t-360.5 112h-176z" />
<glyph unicode="E" horiz-adv-x="1075" d="M98 0l310 1462h731l-31 -145h-559l-105 -492h531l-31 -145h-530l-113 -535h610l-30 -145h-783z" />
<glyph unicode="F" horiz-adv-x="999" d="M98 0l310 1462h737l-31 -145h-565l-105 -492h531l-31 -145h-530l-144 -680h-172z" />
<glyph unicode="G" horiz-adv-x="1413" d="M170 598q0 138 34 268.5t103 243t165.5 196.5t229.5 132.5t287 48.5q217 0 359 -62l-60 -147q-129 63 -313 63q-117 0 -218.5 -39t-176.5 -108t-128.5 -162t-80.5 -202.5t-27 -227.5q0 -101 30 -187.5t87.5 -152.5t149 -103.5t206.5 -37.5q129 0 215 35l107 487h-312 l31 145h481l-159 -739q-167 -74 -369 -74q-133 0 -240.5 32t-181.5 88.5t-123.5 135.5t-72.5 170.5t-23 196.5z" />
<glyph unicode="H" horiz-adv-x="1400" d="M98 0l310 1462h172l-136 -637h691l135 637h172l-309 -1462h-172l143 680h-690l-144 -680h-172z" />
<glyph unicode="I" horiz-adv-x="538" d="M98 0l310 1462h172l-310 -1462h-172z" />
<glyph unicode="J" horiz-adv-x="673" d="M-51 -10l24 145q55 -14 125 -14q93 0 141 45t70 147l244 1149h172l-244 -1149q-36 -170 -121.5 -254t-257.5 -84q-88 0 -153 15z" />
<glyph unicode="K" horiz-adv-x="1187" d="M98 0l310 1462h172l-146 -684h4l680 684h232l-738 -710l494 -752h-205l-471 733h-4l-156 -733h-172z" />
<glyph unicode="L" horiz-adv-x="991" d="M98 0l310 1462h172l-279 -1317h612l-30 -145h-785z" />
<glyph unicode="M" horiz-adv-x="1771" d="M98 0l310 1462h292l123 -1300h4l686 1300h299l-309 -1462h-168l281 1327h-4l-703 -1327h-229l-133 1327h-4l-281 -1327h-164z" />
<glyph unicode="N" horiz-adv-x="1406" d="M98 0l310 1462h254l344 -1274h4l270 1274h168l-309 -1462h-248l-348 1284h-4l-273 -1284h-168z" />
<glyph unicode="O" horiz-adv-x="1501" d="M170 520q0 197 56 374t155 308t244 208t313 77q260 0 393 -148t133 -395q0 -94 -14.5 -190t-45.5 -191t-75.5 -181.5t-108 -161t-139.5 -129t-174 -85.5t-207 -31q-257 0 -393.5 149t-136.5 396zM344 545q0 -122 38.5 -215.5t123 -151t207.5 -57.5q113 0 210 49.5 t163.5 130.5t113.5 185t68.5 213.5t21.5 215.5q0 91 -21.5 166.5t-64.5 134.5t-114.5 92t-165.5 33q-130 0 -241.5 -69t-184 -182t-113.5 -255t-41 -290z" />
<glyph unicode="P" horiz-adv-x="1230" d="M98 0l310 1462h417q197 0 317 -89.5t120 -266.5q0 -225 -158.5 -358.5t-417.5 -133.5h-287l-129 -614h-172zM432 760h270q57 0 109.5 10t103 34.5t87.5 60.5t60 92.5t23 127.5q0 232 -301 232h-235z" />
<glyph unicode="Q" horiz-adv-x="1501" d="M170 520q0 197 56 374t155 308t244 208t313 77q260 0 393 -148t133 -395q0 -117 -24 -237.5t-69.5 -234t-119.5 -213t-168 -165.5l222 -334h-213l-160 254q-109 -39 -232 -39q-257 0 -393.5 149t-136.5 396zM344 545q0 -122 38.5 -215.5t123 -151t207.5 -57.5 q113 0 210 49.5t163.5 130.5t113.5 185t68.5 213.5t21.5 215.5q0 91 -21.5 166.5t-64.5 134.5t-114.5 92t-165.5 33q-130 0 -241.5 -69t-184 -182t-113.5 -255t-41 -290z" />
<glyph unicode="R" horiz-adv-x="1275" d="M98 0l310 1462h428q93 0 168.5 -19t136 -59t94 -109t33.5 -161q0 -154 -86 -254t-250 -137l-2 -4q44 -16 72 -51t42 -103q21 -96 58.5 -291t54.5 -274h-176q-97 514 -98 518q-19 86 -65 113.5t-148 27.5h-260l-140 -659h-172zM440 805h262q184 0 288 74.5t104 224.5 q0 112 -74.5 162.5t-216.5 50.5h-254z" />
<glyph unicode="S" horiz-adv-x="1073" d="M57 57l47 148q86 -41 181 -62.5t174 -21.5q148 0 241 63t93 185q0 88 -56.5 160t-183.5 157q-139 92 -206.5 188.5t-67.5 221.5q0 83 28 150t75 111t110 74t130 43t138 13q194 0 336 -62l-43 -145q-140 61 -293 61q-54 0 -104.5 -11.5t-98 -36t-76 -72t-28.5 -111.5 q0 -82 49.5 -147t175.5 -154q153 -108 221 -202t68 -222q0 -106 -43.5 -187.5t-117.5 -128.5t-162.5 -70.5t-188.5 -23.5q-94 0 -201.5 20.5t-196.5 61.5z" />
<glyph unicode="T" horiz-adv-x="1036" d="M195 1317l30 145h1002l-31 -145h-410l-278 -1317h-172l278 1317h-419z" />
<glyph unicode="U" horiz-adv-x="1355" d="M152 326q0 63 16 133l213 1003h172l-209 -985q-16 -70 -16 -131q0 -225 305 -225q101 0 174 23.5t119 70t73 102.5t43 134l215 1011h173l-220 -1030q-22 -104 -64.5 -184.5t-112 -143t-174.5 -96t-243 -33.5q-220 0 -342 89.5t-122 261.5z" />
<glyph unicode="V" horiz-adv-x="1202" d="M223 1462h187l100 -1300h4l721 1300h195l-834 -1462h-229z" />
<glyph unicode="W" horiz-adv-x="1927" d="M313 1462h181l-9 -1300h4l570 1300h274l-35 -1300h5l600 1300h188l-696 -1462h-254l30 1327h-4l-585 -1327h-254z" />
<glyph unicode="X" horiz-adv-x="1224" d="M-76 0l664 772l-301 690h192l238 -575l477 575h213l-608 -710l327 -752h-196l-260 627l-531 -627h-215z" />
<glyph unicode="Y" horiz-adv-x="1112" d="M205 1462h186l223 -708l529 708h200l-671 -866l-125 -596h-172l125 596z" />
<glyph unicode="Z" horiz-adv-x="1191" d="M14 0l31 150l993 1167h-690l31 145h907l-31 -145l-995 -1172h795l-31 -145h-1010z" />
<glyph unicode="[" horiz-adv-x="634" d="M-37 -399l432 2031h338l-24 -112h-195l-383 -1807h195l-25 -112h-338z" />
<glyph unicode="\" horiz-adv-x="1009" d="M264 1462h152l477 -1462h-152z" />
<glyph unicode="]" horiz-adv-x="634" d="M-2 -399l25 112h194l383 1807h-194l24 112h338l-432 -2031h-338z" />
<glyph unicode="^" d="M209 612l330 813h157l332 -813h-178l-234 635h-2l-231 -635h-174z" />
<glyph unicode="_" horiz-adv-x="952" d="M-141 -287l20 97h950l-20 -97h-950z" />
<glyph unicode="`" horiz-adv-x="952" d="M401 1573h177l155 -336h-115z" />
<glyph unicode="a" horiz-adv-x="1114" d="M94 268q0 92 37.5 163t101.5 116.5t159 74t202 40.5t237 12q17 74 17 106q0 95 -60 144t-170 49q-140 0 -276 -43l-8 133q143 43 297 43q179 0 281 -77.5t102 -231.5q0 -55 -17 -131l-88 -420q-30 -150 -30 -246h-142q-2 12 -2 37q0 47 10 125h-4q-48 -82 -136 -134.5 t-214 -52.5q-127 0 -212 79t-85 214zM258 279q0 -76 47.5 -123t124.5 -47t139.5 28t105 78t69.5 110t42 132l19 92h-55q-104 0 -188.5 -13.5t-155 -43.5t-109.5 -84t-39 -129z" />
<glyph unicode="b" horiz-adv-x="1212" d="M88 0l322 1505h168l-129 -579h4q53 81 135.5 130.5t185.5 49.5q84 0 150.5 -25.5t107.5 -67.5t68.5 -100.5t38 -118.5t10.5 -128q0 -139 -40 -265t-111 -220.5t-176 -150t-228 -55.5q-238 0 -318 172h-4l-32 -147h-152zM346 397q0 -133 64 -210.5t186 -77.5q75 0 140 36 t108.5 94.5t74.5 132t45.5 148t14.5 144.5q0 65 -12.5 118.5t-39 97.5t-73.5 68.5t-111 24.5q-72 0 -136 -33.5t-111 -90t-81.5 -130.5t-51.5 -156.5t-17 -165.5z" />
<glyph unicode="c" horiz-adv-x="901" d="M127 416q0 106 26 207t77.5 188t123 153t168.5 104t207 38q124 0 209 -31l-45 -133q-76 31 -170 31q-98 0 -180 -47.5t-135 -125t-82 -172.5t-29 -194q0 -69 16 -126t50 -102.5t92 -71t135 -25.5q98 0 186 26v-131q-106 -29 -203 -29q-216 0 -331 124t-115 317z" />
<glyph unicode="d" horiz-adv-x="1212" d="M123 416q0 138 42 264.5t114.5 220.5t176.5 149.5t222 55.5q107 0 185 -44t116 -128h4l123 571h166l-320 -1505h-151l30 141h-4q-116 -166 -315 -166q-82 0 -148.5 24t-111 65t-74 98t-42.5 120t-13 134zM293 418q0 -64 13 -118.5t40 -98t73.5 -68t108.5 -24.5 q90 0 166.5 51t126 133.5t77.5 184t28 206.5q0 128 -65 208.5t-185 80.5q-75 0 -140 -36t-108.5 -94.5t-74.5 -132t-45.5 -148t-14.5 -144.5z" />
<glyph unicode="e" d="M127 408q0 190 69.5 348.5t200.5 254t297 95.5q178 0 270.5 -96.5t92.5 -270.5q0 -105 -35 -245h-723q-4 -31 -4 -76q0 -143 80 -226t241 -83q121 0 230 34v-129q-107 -39 -256 -39q-117 0 -206.5 32.5t-145 91.5t-83.5 136.5t-28 172.5zM319 631h574q12 52 12 98 q0 115 -55.5 179.5t-169.5 64.5q-71 0 -132.5 -27.5t-105.5 -76t-75 -108.5t-48 -130z" />
<glyph unicode="f" horiz-adv-x="665" d="M125 948l31 133h219l18 84q14 65 30.5 112.5t44.5 92.5t66 73t95 45t131 17q81 0 155 -20l-28 -123q-59 16 -125 16q-52 0 -88 -14.5t-59.5 -47t-37 -72t-26.5 -101.5l-12 -62h254l-31 -133h-252l-199 -948h-164l199 948h-221z" />
<glyph unicode="g" horiz-adv-x="1212" d="M106 -346l39 131q141 -51 279 -51q163 0 249.5 70.5t123.5 228.5l34 143h-4q-54 -74 -137 -117t-184 -43q-102 0 -178.5 36t-120 99t-64 139t-20.5 167q0 129 42 248t114.5 207.5t176.5 141t222 52.5q107 0 184 -44t115 -128h4l33 147h164l-224 -1056 q-49 -226 -185.5 -325t-350.5 -99q-167 0 -312 53zM293 459q0 -65 12 -118.5t37.5 -97.5t70.5 -68.5t107 -24.5q121 0 214 76.5t139.5 197t46.5 260.5q0 134 -61.5 211.5t-182.5 77.5q-74 0 -138.5 -32.5t-108.5 -85.5t-75.5 -120.5t-46 -138t-14.5 -137.5z" />
<glyph unicode="h" horiz-adv-x="1204" d="M88 0l320 1505h167l-133 -620h4q56 98 147 159.5t204 61.5q155 0 233 -83t78 -216q0 -57 -18 -145l-138 -662h-168l138 647q20 98 20 141q0 76 -43.5 130.5t-142.5 54.5q-129 0 -235.5 -108.5t-145.5 -293.5l-119 -571h-168z" />
<glyph unicode="i" horiz-adv-x="514" d="M88 0l229 1081h168l-229 -1081h-168zM352 1309l39 180h180l-39 -180h-180z" />
<glyph unicode="j" horiz-adv-x="514" d="M-219 -391l20 133q52 -8 95 -8q82 0 121 52.5t61 152.5l244 1142h167l-243 -1157q-17 -77 -40 -131.5t-62.5 -100t-101 -68.5t-146.5 -23q-60 0 -115 8zM356 1309l39 180h180l-38 -180h-181z" />
<glyph unicode="k" horiz-adv-x="985" d="M88 0l320 1505h167l-190 -891h4l496 467h215l-545 -495l381 -586h-197l-358 573h-4l-121 -573h-168z" />
<glyph unicode="l" horiz-adv-x="514" d="M88 0l320 1505h167l-319 -1505h-168z" />
<glyph unicode="m" horiz-adv-x="1859" d="M88 0l229 1081h162l-45 -200h4q57 102 152 163.5t207 61.5q120 0 192 -58.5t80 -154.5h6q70 110 169.5 161.5t211.5 51.5q151 0 228 -81.5t77 -219.5q0 -63 -18 -154l-135 -651h-168l137 647q18 88 18 144q0 75 -41.5 128.5t-132.5 53.5q-53 0 -106 -18.5t-102.5 -54 t-87.5 -96.5t-54 -138l-141 -666h-164l141 666q17 80 17 120q0 88 -38.5 137.5t-131.5 49.5q-124 0 -231.5 -109t-143.5 -280l-123 -584h-168z" />
<glyph unicode="n" horiz-adv-x="1204" d="M88 0l229 1081h162l-45 -200h4q57 100 150.5 162.5t212.5 62.5q151 0 228 -81.5t77 -219.5q0 -57 -19 -154l-135 -651h-168l138 647q18 88 18 144q0 76 -40.5 129t-131.5 53q-138 0 -247.5 -113.5t-145.5 -288.5l-119 -571h-168z" />
<glyph unicode="o" horiz-adv-x="1187" d="M123 403q0 191 72 351.5t204 256t295 95.5q208 0 313 -112.5t105 -307.5q0 -91 -20.5 -186.5t-66.5 -190t-111 -168.5t-162 -120t-211 -46q-208 0 -313 116t-105 312zM293 414q0 -136 62 -220.5t192 -84.5q81 0 149.5 39.5t112.5 101t75 138.5t44.5 151t13.5 141 q0 135 -61.5 214t-192.5 79q-92 0 -168.5 -48.5t-125 -128.5t-75 -179t-26.5 -203z" />
<glyph unicode="p" horiz-adv-x="1212" d="M0 -399l315 1480h168l-34 -155h4q53 80 136 130t181 50q84 0 150.5 -25t108.5 -66.5t69 -99.5t38 -119t11 -130q0 -139 -40.5 -265t-111.5 -220.5t-176 -150t-227 -55.5q-233 0 -307 168h-4l-115 -542h-166zM344 397q0 -133 64 -210.5t186 -77.5q75 0 140 36t108.5 94.5 t74.5 132t45.5 148t14.5 144.5q0 87 -22.5 154.5t-77.5 111t-136 43.5q-72 0 -136 -33.5t-111 -90t-81.5 -130.5t-51.5 -156.5t-17 -165.5z" />
<glyph unicode="q" horiz-adv-x="1212" d="M123 416q0 138 42 264.5t114.5 220.5t176.5 149.5t222 55.5q233 0 311 -172h4l33 147h158l-318 -1480h-159l118 526h-4q-111 -152 -307 -152q-102 0 -179.5 36t-122.5 98.5t-67 139.5t-22 167zM293 418q0 -64 13 -118.5t40 -98t73.5 -68t108.5 -24.5q90 0 166.5 51 t126 133.5t77.5 184t28 206.5q0 133 -64.5 211t-185.5 78q-75 0 -140 -36t-108.5 -94.5t-74.5 -132t-45.5 -148t-14.5 -144.5z" />
<glyph unicode="r" horiz-adv-x="720" d="M88 0l229 1081h162l-39 -168h4q110 193 324 193q49 0 76 -6l-33 -135q-32 8 -74 8q-129 0 -223.5 -98t-132.5 -277l-125 -598h-168z" />
<glyph unicode="s" horiz-adv-x="839" d="M-2 41l47 133q141 -65 289 -65q107 0 170 39t63 120q0 65 -41.5 115t-130.5 111q-116 80 -168.5 146.5t-52.5 162.5q0 63 22.5 114.5t60 86t87.5 58t103.5 34t109.5 10.5q152 0 279 -51l-43 -133q-119 51 -236 51q-40 0 -75.5 -7t-70.5 -23.5t-56 -49.5t-21 -80 q0 -57 38.5 -100t125.5 -103q116 -79 173.5 -154.5t57.5 -174.5q0 -83 -32 -144t-88.5 -95.5t-124 -50.5t-148.5 -16q-77 0 -170.5 17t-167.5 49z" />
<glyph unicode="t" horiz-adv-x="704" d="M129 948l31 133h205l57 273h164l-58 -273h244l-31 -133h-243l-136 -649q-14 -63 -14 -94q0 -43 27.5 -63.5t97.5 -20.5q58 0 133 6l-22 -127q-74 -12 -181 -12q-111 0 -166 44t-55 142q0 44 19 141l133 633h-205z" />
<glyph unicode="u" horiz-adv-x="1204" d="M145 276q0 57 19 154l135 651h168l-137 -647q-19 -93 -19 -143q0 -35 7.5 -65t25 -57.5t51.5 -43.5t82 -16q139 0 252 113.5t148 287.5l118 571h168l-229 -1081h-162l45 201h-4q-56 -99 -152 -162.5t-215 -63.5q-151 0 -226 81.5t-75 219.5z" />
<glyph unicode="v" horiz-adv-x="1011" d="M184 1081h170l39 -934h4l570 934h184l-686 -1081h-217z" />
<glyph unicode="w" horiz-adv-x="1628" d="M201 1081h170l-15 -934h4l488 934h242l-39 -934h4l495 934h185l-605 -1081h-227l29 938h-4l-490 -938h-227z" />
<glyph unicode="x" horiz-adv-x="1003" d="M-76 0l508 567l-231 514h182l178 -417l361 417h202l-479 -530l248 -551h-184l-191 446l-391 -446h-203z" />
<glyph unicode="y" horiz-adv-x="1011" d="M20 -399l261 403l-95 1077h170l66 -886h4l543 886h184l-950 -1480h-183z" />
<glyph unicode="z" horiz-adv-x="995" d="M27 0l26 133l723 815h-534l30 133h738l-31 -133l-715 -815h594l-29 -133h-802z" />
<glyph unicode="{" horiz-adv-x="634" d="M53 563l25 117q102 10 144.5 62.5t72.5 193.5l92 422q32 143 101.5 208.5t179.5 65.5h120l-24 -112h-59q-89 0 -126 -43.5t-63 -165.5l-80 -381q-32 -152 -85.5 -216.5t-170.5 -92.5l-2 -5q74 -26 104.5 -72.5t30.5 -129.5q0 -60 -18 -140l-74 -350q-12 -56 -12 -92 q0 -119 133 -119h39l-25 -112h-59q-107 0 -169 53t-62 153q0 61 16 127l76 340q22 99 22 154q0 60 -29.5 92.5t-97.5 42.5z" />
<glyph unicode="|" horiz-adv-x="952" d="M485 -399v1904h133v-1904h-133z" />
<glyph unicode="}" horiz-adv-x="634" d="M-55 -399l24 112h60q89 0 125.5 43.5t62.5 165.5l80 381q32 152 85.5 216.5t170.5 92.5l2 4q-74 26 -104.5 73t-30.5 130q0 59 18 139l74 351q12 55 12 92q0 119 -133 119h-39l25 112h59q107 0 169.5 -53.5t62.5 -153.5q0 -57 -17 -127l-76 -340q-22 -99 -22 -153 q0 -60 29.5 -92.5t97.5 -42.5l-25 -117q-102 -10 -144.5 -62.5t-72.5 -193.5l-92 -422q-32 -143 -101 -208.5t-179 -65.5h-121z" />
<glyph unicode="~" d="M143 543v141q94 88 256 88q65 0 127.5 -20t104.5 -43.5t100.5 -43.5t116.5 -20q141 5 229 100v-141q-97 -88 -256 -88q-64 0 -125.5 20t-103 43.5t-98.5 43.5t-111 20q-147 0 -240 -100z" />
<glyph unicode="&#xa1;" horiz-adv-x="624" d="M49 -381l258 1055h131l-188 -1055h-201zM315 883l41 198h193l-41 -198h-193z" />
<glyph unicode="&#xa2;" horiz-adv-x="1013" d="M141 414q0 178 75.5 329.5t207.5 245.5t293 109l28 131h132l-27 -123q95 -3 170 -31l-45 -137q-70 31 -154 31l-182 -856q103 3 205 45v-138q-122 -42 -234 -45l-24 -112h-131l26 121q-166 25 -253 143.5t-87 286.5zM311 422q0 -117 49 -198.5t152 -102.5l178 837 q-118 -21 -205.5 -103t-130.5 -194.5t-43 -238.5z" />
<glyph unicode="&#xa3;" horiz-adv-x="1218" d="M43 0l31 147h215l119 564h-201l24 116h201l45 213q96 447 502 447q151 0 254 -47l-53 -140q-84 41 -199 41q-266 0 -334 -313l-43 -201h328l-25 -116h-327l-119 -564h581l-30 -147h-969z" />
<glyph unicode="&#xa4;" horiz-adv-x="1101" d="M104 346l164 131q-26 53 -26 123q0 164 106 279l-129 165l115 84l127 -161q92 53 209 53q109 0 190 -62l166 134l88 -111l-164 -133q27 -62 27 -123q0 -159 -107 -279l129 -163l-114 -84l-127 159q-94 -51 -209 -51q-109 0 -193 62l-163 -133zM403 618q0 -72 44 -117.5 t118 -45.5q100 0 175 73.5t75 176.5q0 73 -44 120t-118 47q-102 0 -176 -75.5t-74 -178.5z" />
<glyph unicode="&#xa5;" horiz-adv-x="1218" d="M172 307l23 113h335l41 190h-335l24 113h303l-280 739h182l229 -686l510 686h189l-582 -739h299l-25 -113h-348l-41 -190h348l-22 -113h-348l-66 -307h-166l66 307h-336z" />
<glyph unicode="&#xa6;" horiz-adv-x="952" d="M485 352h133v-751h-133v751zM485 752v753h133v-753h-133z" />
<glyph unicode="&#xa7;" d="M92 -262l58 139q45 -22 126 -39.5t144 -17.5q114 0 184 47t70 129q0 59 -51.5 122.5t-182.5 157.5q-129 92 -184 172t-55 175q0 123 82.5 194.5t212.5 87.5q-70 68 -100.5 130t-30.5 132q0 144 105 232t296 88q80 0 160.5 -14t122.5 -35l-52 -138q-101 43 -235 43 q-112 0 -171 -44.5t-59 -122.5q0 -70 50 -128.5t163 -142.5q142 -107 194 -187t52 -179q0 -111 -75 -184t-207 -93q133 -125 133 -262q0 -106 -61 -181t-158.5 -109t-221.5 -34q-74 0 -165.5 17.5t-143.5 44.5zM365 643q0 -60 34 -111t125 -120l74 -56q118 11 173.5 50.5 t55.5 121.5q0 66 -35.5 117.5t-107.5 106.5l-82 61q-108 -3 -172.5 -43.5t-64.5 -126.5z" />
<glyph unicode="&#xa8;" horiz-adv-x="952" d="M377 1282l41 193h168l-41 -193h-168zM741 1282l41 193h166l-41 -193h-166z" />
<glyph unicode="&#xa9;" horiz-adv-x="1638" d="M141 727q0 156 56 295t154.5 240t239 160t302.5 59q160 0 299.5 -59t236 -160t152 -240t55.5 -295q0 -206 -94 -376t-265 -269.5t-384 -99.5q-162 0 -302.5 58.5t-239 158.5t-154.5 237t-56 291zM262 727q0 -130 46.5 -247t128 -203t200 -136.5t256.5 -50.5q180 0 324 86 t222.5 231.5t78.5 319.5q0 176 -78.5 323.5t-222.5 235.5t-324 88q-183 0 -328.5 -88t-224 -235t-78.5 -324zM492 731q0 208 113 335.5t321 127.5q140 0 207 -37l-33 -119q-82 35 -162 35q-76 0 -133.5 -27t-91.5 -75t-51 -108.5t-17 -131.5q0 -144 73.5 -239t217.5 -95 q105 0 178 37l29 -119q-82 -43 -223 -43q-199 0 -313.5 127t-114.5 332z" />
<glyph unicode="&#xaa;" horiz-adv-x="700" d="M193 915q0 73 33 124t94.5 78.5t136.5 39.5t172 12q10 38 10 62q0 88 -117 88q-77 0 -184 -35l-4 109q122 34 215 34q107 0 168 -48.5t61 -143.5q0 -38 -8 -74l-55 -260q-21 -103 -21 -139h-127q0 34 8 84h-4q-72 -101 -190 -101q-85 0 -136.5 47.5t-51.5 122.5zM328 930 q0 -37 21.5 -59.5t60.5 -22.5q80 0 129 57.5t63 132.5l8 39h-24q-258 0 -258 -147z" />
<glyph unicode="&#xab;" horiz-adv-x="1081" d="M199 614l2 11l327 374h158l-334 -395l160 -385h-147zM567 614l2 11l328 374h158l-334 -395l160 -385h-148z" />
<glyph unicode="&#xac;" d="M139 799v121h940v-553h-127v432h-813z" />
<glyph unicode="&#xad;" horiz-adv-x="819" d="M184 545l31 141h514l-31 -141h-514z" />
<glyph unicode="&#xae;" horiz-adv-x="1028" d="M223 1075q0 183 122.5 306.5t313.5 123.5t312 -123.5t121 -306.5q0 -184 -121 -307t-312 -123t-313.5 123t-122.5 307zM293 1075q0 -156 101 -261t265 -105q161 0 263 105.5t102 260.5q0 154 -102 259.5t-263 105.5q-164 0 -265 -105t-101 -260zM487 827v498h199 q76 0 118 -28.5t42 -100.5q0 -95 -92 -121v-2q49 -12 71 -90q9 -30 26 -82.5t23 -73.5h-92q-1 4 -39 136q-11 45 -31 60t-75 15h-59v-211h-91zM578 1102h79q103 0 103 82q0 46 -26 62t-70 16h-86v-160z" />
<glyph unicode="&#xaf;" horiz-adv-x="952" d="M387 1311l27 123h526l-27 -123h-526z" />
<glyph unicode="&#xb0;" horiz-adv-x="761" d="M227 1202q0 118 85.5 200.5t207.5 82.5q114 0 196.5 -84t82.5 -201q0 -120 -83 -203.5t-202 -83.5t-203 84t-84 205zM330 1200q0 -78 53.5 -132t130.5 -54t130.5 54.5t53.5 133.5q0 77 -54.5 130.5t-131.5 53.5q-75 0 -128.5 -54.5t-53.5 -131.5z" />
<glyph unicode="&#xb1;" d="M143 158v127h934v-127h-934zM143 727v129h402v311h135v-311h397v-129h-397v-311h-135v311h-402z" />
<glyph unicode="&#xb2;" horiz-adv-x="780" d="M213 877l27 133q162 119 263.5 202t152.5 142t68 97.5t17 80.5q0 52 -35 84.5t-94 32.5q-80 0 -204 -62l-31 115q130 67 260 67q111 0 181.5 -58.5t70.5 -160.5q0 -55 -18.5 -105t-48.5 -93.5t-95 -103t-129 -110.5t-180 -139v-2h387l-25 -120h-567z" />
<glyph unicode="&#xb3;" horiz-adv-x="780" d="M248 915l47 115q99 -47 192 -47t150 41t57 123q0 125 -180 125h-106l22 112h107q49 0 97 16.5t84 55t36 90.5q0 50 -32 78.5t-91 28.5q-87 0 -207 -54l-27 113q123 57 252 57q118 0 184 -53t66 -145q0 -181 -190 -240v-4q62 -18 96.5 -68t34.5 -112q0 -139 -95 -212 t-258 -73q-133 0 -239 53z" />
<glyph unicode="&#xb4;" horiz-adv-x="952" d="M539 1237l258 336h186l-319 -336h-125z" />
<glyph unicode="&#xb5;" horiz-adv-x="1247" d="M0 -399l311 1480h168l-139 -663q-14 -69 -14 -125q0 -184 163 -184q131 0 247 109.5t153 289.5l119 573h168l-179 -837q-10 -52 -10 -74q0 -30 18 -39.5t58 -9.5q23 0 39 4l-23 -127q-48 -10 -88 -10q-164 0 -164 168q0 29 2 45h-4q-63 -109 -158 -167.5t-208 -58.5 q-69 0 -126 19.5t-71 46.5h-4l-92 -440h-166z" />
<glyph unicode="&#xb6;" horiz-adv-x="1142" d="M182 981q0 216 158 348.5t412 132.5h477l-361 -1702h-133l338 1594h-258l-338 -1594h-133l191 904q-164 0 -258.5 86t-94.5 231z" />
<glyph unicode="&#xb7;" horiz-adv-x="571" d="M205 516l45 207h207l-45 -207h-207z" />
<glyph unicode="&#xb8;" horiz-adv-x="952" d="M131 -426l14 88q52 -8 95 -8q143 0 143 86q0 34 -26 47.5t-85 13.5q-26 0 -84 -4l80 223h97l-58 -139q23 2 45 2q63 0 106.5 -33t43.5 -102q0 -186 -260 -186q-56 0 -111 12z" />
<glyph unicode="&#xb9;" horiz-adv-x="780" d="M367 1602l274 153h147l-186 -878h-147l155 729l-192 -111z" />
<glyph unicode="&#xba;" horiz-adv-x="770" d="M215 1006q0 116 40.5 210t126 152.5t204.5 58.5q122 0 192 -69t70 -187q0 -117 -40.5 -211.5t-126 -153t-204.5 -58.5q-121 0 -191.5 69.5t-70.5 188.5zM360 1010q0 -72 34 -114t98 -42q68 0 118 50t72.5 120t22.5 145q0 70 -33.5 111t-100.5 41q-66 0 -115.5 -48.5 t-72.5 -117.5t-23 -145z" />
<glyph unicode="&#xbb;" horiz-adv-x="1081" d="M117 219l334 395l-160 385h147l166 -395l-2 -10l-328 -375h-157zM485 219l334 395l-160 385h148l166 -395l-2 -10l-328 -375h-158z" />
<glyph unicode="&#xbc;" horiz-adv-x="1808" d="M305 1315l275 153h147l-186 -878h-148l156 729l-193 -111zM360 0l1153 1462h136l-1153 -1462h-136zM1051 197l28 135l469 547h187l-121 -566h115l-25 -116h-115l-41 -197h-139l41 197h-399zM1208 313h267l88 416h-4z" />
<glyph unicode="&#xbd;" horiz-adv-x="1808" d="M305 1315l275 153h147l-186 -878h-148l156 729l-193 -111zM352 0l1153 1462h135l-1153 -1462h-135zM1077 0l27 133q162 119 263.5 202t153 142t68.5 97.5t17 80.5q0 52 -35 84.5t-94 32.5q-83 0 -205 -61l-31 114q132 68 260 68q111 0 181.5 -58.5t70.5 -160.5 q0 -55 -18.5 -105t-48.5 -93.5t-95 -103t-129 -110.5t-180 -139v-2h387l-24 -121h-568z" />
<glyph unicode="&#xbe;" horiz-adv-x="1808" d="M186 629l47 114q99 -47 193 -47q93 0 150 41t57 123q0 125 -180 125h-107l23 113h106q49 0 97 16.5t84 55t36 90.5q0 50 -32 78t-91 28q-89 0 -207 -53l-26 112q125 58 252 58q117 0 183.5 -53.5t66.5 -145.5q0 -181 -191 -240v-4q62 -18 96.5 -68t34.5 -112 q0 -139 -94.5 -212t-257.5 -73q-132 0 -240 54zM365 0l1153 1462h135l-1153 -1462h-135zM1051 197l28 135l469 547h187l-121 -566h115l-25 -116h-115l-41 -197h-139l41 197h-399zM1208 313h267l88 416h-4z" />
<glyph unicode="&#xbf;" horiz-adv-x="950" d="M-43 -86q0 47 10 89.5t23 74.5t40.5 66.5t47 55.5t59.5 51t60.5 44.5t66.5 44.5q78 52 121.5 92t76.5 98.5t48 139.5l8 45h156l-15 -70q-27 -131 -86 -215t-174 -164l-75 -53q-60 -43 -97.5 -78.5t-65.5 -91t-28 -119.5q0 -94 65 -139t164 -45q161 0 300 72l24 -136 q-155 -82 -352 -82q-74 0 -140.5 19.5t-120 57t-85 100.5t-31.5 143zM528 883l41 198h203l-41 -198h-203z" />
<glyph unicode="&#xc0;" horiz-adv-x="1320" d="M-74 0l871 1462h235l182 -1462h-186l-49 438h-602l-258 -438h-193zM455 588h512l-80 739zM662 1837h186l180 -274h-121z" />
<glyph unicode="&#xc1;" horiz-adv-x="1320" d="M-74 0l871 1462h235l182 -1462h-186l-49 438h-602l-258 -438h-193zM455 588h512l-80 739zM838 1563l217 274h196l-284 -274h-129z" />
<glyph unicode="&#xc2;" horiz-adv-x="1320" d="M-74 0l871 1462h235l182 -1462h-186l-49 438h-602l-258 -438h-193zM455 588h512l-80 739zM592 1548l305 299h170l180 -299h-131l-145 201l-230 -201h-149z" />
<glyph unicode="&#xc3;" horiz-adv-x="1320" d="M-74 0l871 1462h235l182 -1462h-186l-49 438h-602l-258 -438h-193zM455 588h512l-80 739zM588 1567q23 118 81 188t150 70q47 0 86 -18.5t84 -59.5q39 -36 62.5 -48.5t48.5 -12.5q40 0 68.5 38t37.5 101h121q-23 -117 -81 -187.5t-150 -70.5q-47 0 -82.5 18.5t-83.5 61.5 q-69 61 -113 61q-42 0 -69.5 -38t-38.5 -103h-121z" />
<glyph unicode="&#xc4;" horiz-adv-x="1320" d="M-74 0l871 1462h235l182 -1462h-186l-49 438h-602l-258 -438h-193zM455 588h512l-80 739zM682 1618l41 192h168l-41 -192h-168zM1047 1618l40 192h166l-41 -192h-165z" />
<glyph unicode="&#xc5;" horiz-adv-x="1320" d="M-74 0l871 1462h235l182 -1462h-186l-49 438h-602l-258 -438h-193zM455 588h512l-80 739zM764 1735q0 85 60.5 143.5t148.5 58.5q83 0 142 -60t59 -142q0 -86 -59 -145.5t-144 -59.5q-86 0 -146.5 59.5t-60.5 145.5zM842 1735q0 -54 37.5 -91.5t91.5 -37.5 q52 0 88.5 37.5t36.5 91.5q0 52 -37 88.5t-90 36.5q-52 0 -89.5 -37t-37.5 -88z" />
<glyph unicode="&#xc6;" horiz-adv-x="1781" d="M-74 0l1069 1462h850l-30 -145h-560l-104 -492h530l-30 -145h-531l-112 -535h610l-31 -145h-782l84 397h-483l-287 -397h-193zM514 547h406l165 780h-4z" />
<glyph unicode="&#xc7;" horiz-adv-x="1167" d="M170 561q0 140 36 275.5t107 252.5t168.5 206t230 140.5t281.5 51.5q69 0 149.5 -12.5t135.5 -32.5l-49 -142q-106 41 -248 41q-115 0 -217 -43.5t-177.5 -118.5t-131 -173.5t-83.5 -210.5t-28 -226q0 -98 23.5 -177.5t73.5 -141t134.5 -95.5t198.5 -34q129 0 250 37 v-146q-130 -37 -283 -37q-9 0 -27.5 1t-27.5 1l-39 -96q23 2 45 2q63 0 106.5 -33t43.5 -102q0 -186 -260 -186q-56 0 -111 12l14 88q52 -8 95 -8q143 0 143 86q0 34 -26 47.5t-85 13.5q-26 0 -84 -4l68 191q-111 20 -194 72t-133 128t-74.5 169.5t-24.5 203.5z" />
<glyph unicode="&#xc8;" horiz-adv-x="1075" d="M98 0l310 1462h731l-31 -145h-559l-105 -492h531l-31 -145h-530l-113 -535h610l-30 -145h-783zM516 1837h186l181 -274h-121z" />
<glyph unicode="&#xc9;" horiz-adv-x="1075" d="M98 0l310 1462h731l-31 -145h-559l-105 -492h531l-31 -145h-530l-113 -535h610l-30 -145h-783zM692 1563l217 274h197l-285 -274h-129z" />
<glyph unicode="&#xca;" horiz-adv-x="1075" d="M98 0l310 1462h731l-31 -145h-559l-105 -492h531l-31 -145h-530l-113 -535h610l-30 -145h-783zM463 1548l305 299h170l180 -299h-131l-145 201l-230 -201h-149z" />
<glyph unicode="&#xcb;" horiz-adv-x="1075" d="M98 0l310 1462h731l-31 -145h-559l-105 -492h531l-31 -145h-530l-113 -535h610l-30 -145h-783zM539 1618l41 192h168l-41 -192h-168zM903 1618l41 192h166l-41 -192h-166z" />
<glyph unicode="&#xcc;" horiz-adv-x="538" d="M98 0l310 1462h172l-310 -1462h-172zM229 1837h187l180 -274h-121z" />
<glyph unicode="&#xcd;" horiz-adv-x="538" d="M98 0l310 1462h172l-310 -1462h-172zM432 1563l217 274h197l-285 -274h-129z" />
<glyph unicode="&#xce;" horiz-adv-x="538" d="M98 0l310 1462h172l-310 -1462h-172zM176 1548l305 299h170l180 -299h-131l-145 201l-229 -201h-150z" />
<glyph unicode="&#xcf;" horiz-adv-x="538" d="M98 0l310 1462h172l-310 -1462h-172zM264 1618l41 192h168l-41 -192h-168zM629 1618l41 192h166l-41 -192h-166z" />
<glyph unicode="&#xd0;" horiz-adv-x="1413" d="M98 0l148 700h-148l23 105h147l140 657h368q304 0 449 -148t145 -411q0 -144 -33.5 -275.5t-105 -246.5t-174 -199.5t-250 -133t-324.5 -48.5h-385zM301 145h180q174 0 312 59t225 161t132.5 234.5t45.5 285.5q0 208 -110.5 320t-360.5 112h-176l-109 -512h262l-22 -105 h-262z" />
<glyph unicode="&#xd1;" horiz-adv-x="1406" d="M98 0l310 1462h254l344 -1274h4l270 1274h168l-309 -1462h-248l-348 1284h-4l-273 -1284h-168zM608 1567q23 117 81.5 187.5t150.5 70.5q47 0 86 -18.5t84 -59.5q39 -36 62 -48.5t48 -12.5q41 0 69.5 38t37.5 101h121q-23 -116 -81.5 -187t-150.5 -71q-47 0 -82.5 18.5 t-83.5 61.5q-69 61 -112 61t-70.5 -38t-38.5 -103h-121z" />
<glyph unicode="&#xd2;" horiz-adv-x="1501" d="M170 520q0 197 56 374t155 308t244 208t313 77q260 0 393 -148t133 -395q0 -94 -14.5 -190t-45.5 -191t-75.5 -181.5t-108 -161t-139.5 -129t-174 -85.5t-207 -31q-257 0 -393.5 149t-136.5 396zM344 545q0 -122 38.5 -215.5t123 -151t207.5 -57.5q113 0 210 49.5 t163.5 130.5t113.5 185t68.5 213.5t21.5 215.5q0 91 -21.5 166.5t-64.5 134.5t-114.5 92t-165.5 33q-130 0 -241.5 -69t-184 -182t-113.5 -255t-41 -290zM743 1837h187l180 -274h-121z" />
<glyph unicode="&#xd3;" horiz-adv-x="1501" d="M170 520q0 197 56 374t155 308t244 208t313 77q260 0 393 -148t133 -395q0 -94 -14.5 -190t-45.5 -191t-75.5 -181.5t-108 -161t-139.5 -129t-174 -85.5t-207 -31q-257 0 -393.5 149t-136.5 396zM344 545q0 -122 38.5 -215.5t123 -151t207.5 -57.5q113 0 210 49.5 t163.5 130.5t113.5 185t68.5 213.5t21.5 215.5q0 91 -21.5 166.5t-64.5 134.5t-114.5 92t-165.5 33q-130 0 -241.5 -69t-184 -182t-113.5 -255t-41 -290zM879 1563l217 274h196l-284 -274h-129z" />
<glyph unicode="&#xd4;" horiz-adv-x="1501" d="M170 520q0 197 56 374t155 308t244 208t313 77q260 0 393 -148t133 -395q0 -94 -14.5 -190t-45.5 -191t-75.5 -181.5t-108 -161t-139.5 -129t-174 -85.5t-207 -31q-257 0 -393.5 149t-136.5 396zM344 545q0 -122 38.5 -215.5t123 -151t207.5 -57.5q113 0 210 49.5 t163.5 130.5t113.5 185t68.5 213.5t21.5 215.5q0 91 -21.5 166.5t-64.5 134.5t-114.5 92t-165.5 33q-130 0 -241.5 -69t-184 -182t-113.5 -255t-41 -290zM657 1548l306 299h170l180 -299h-131l-146 201l-229 -201h-150z" />
<glyph unicode="&#xd5;" horiz-adv-x="1501" d="M170 520q0 197 56 374t155 308t244 208t313 77q260 0 393 -148t133 -395q0 -94 -14.5 -190t-45.5 -191t-75.5 -181.5t-108 -161t-139.5 -129t-174 -85.5t-207 -31q-257 0 -393.5 149t-136.5 396zM344 545q0 -122 38.5 -215.5t123 -151t207.5 -57.5q113 0 210 49.5 t163.5 130.5t113.5 185t68.5 213.5t21.5 215.5q0 91 -21.5 166.5t-64.5 134.5t-114.5 92t-165.5 33q-130 0 -241.5 -69t-184 -182t-113.5 -255t-41 -290zM653 1567q23 117 81.5 187.5t150.5 70.5q47 0 86 -18.5t84 -59.5q39 -36 62 -48.5t48 -12.5q41 0 69.5 38t37.5 101 h121q-23 -116 -81.5 -187t-150.5 -71q-47 0 -82.5 18.5t-83.5 61.5q-69 61 -112 61t-70.5 -38t-38.5 -103h-121z" />
<glyph unicode="&#xd6;" horiz-adv-x="1501" d="M170 520q0 197 56 374t155 308t244 208t313 77q260 0 393 -148t133 -395q0 -94 -14.5 -190t-45.5 -191t-75.5 -181.5t-108 -161t-139.5 -129t-174 -85.5t-207 -31q-257 0 -393.5 149t-136.5 396zM344 545q0 -122 38.5 -215.5t123 -151t207.5 -57.5q113 0 210 49.5 t163.5 130.5t113.5 185t68.5 213.5t21.5 215.5q0 91 -21.5 166.5t-64.5 134.5t-114.5 92t-165.5 33q-130 0 -241.5 -69t-184 -182t-113.5 -255t-41 -290zM739 1618l41 192h168l-41 -192h-168zM1104 1618l41 192h166l-41 -192h-166z" />
<glyph unicode="&#xd7;" d="M135 252l379 379l-379 379l96 94l379 -379l379 379l92 -94l-379 -379l379 -379l-92 -94l-379 379l-379 -379z" />
<glyph unicode="&#xd8;" horiz-adv-x="1501" d="M53 35l185 186q-68 127 -68 299q0 197 56 374t155 308t244 208t313 77q261 0 399 -154l158 160l76 -76l-172 -174q65 -127 65 -299q0 -94 -14.5 -190t-45.5 -191t-75.5 -181.5t-108 -161t-139.5 -129t-174 -85.5t-207 -31q-261 0 -401 156l-170 -172zM344 545 q0 -107 29 -187l837 848q-97 135 -286 135q-130 0 -241.5 -69t-184 -182t-113.5 -255t-41 -290zM422 256q98 -135 291 -135q113 0 210 49.5t163.5 130.5t113.5 185t68.5 213.5t21.5 215.5q0 100 -28 189z" />
<glyph unicode="&#xd9;" horiz-adv-x="1355" d="M152 326q0 63 16 133l213 1003h172l-209 -985q-16 -70 -16 -131q0 -225 305 -225q101 0 174 23.5t119 70t73 102.5t43 134l215 1011h173l-220 -1030q-22 -104 -64.5 -184.5t-112 -143t-174.5 -96t-243 -33.5q-220 0 -342 89.5t-122 261.5zM649 1837h187l180 -274h-121z " />
<glyph unicode="&#xda;" horiz-adv-x="1355" d="M152 326q0 63 16 133l213 1003h172l-209 -985q-16 -70 -16 -131q0 -225 305 -225q101 0 174 23.5t119 70t73 102.5t43 134l215 1011h173l-220 -1030q-22 -104 -64.5 -184.5t-112 -143t-174.5 -96t-243 -33.5q-220 0 -342 89.5t-122 261.5zM825 1563l217 274h197 l-285 -274h-129z" />
<glyph unicode="&#xdb;" horiz-adv-x="1355" d="M152 326q0 63 16 133l213 1003h172l-209 -985q-16 -70 -16 -131q0 -225 305 -225q101 0 174 23.5t119 70t73 102.5t43 134l215 1011h173l-220 -1030q-22 -104 -64.5 -184.5t-112 -143t-174.5 -96t-243 -33.5q-220 0 -342 89.5t-122 261.5zM594 1548l305 299h170l180 -299 h-131l-145 201l-230 -201h-149z" />
<glyph unicode="&#xdc;" horiz-adv-x="1355" d="M152 326q0 63 16 133l213 1003h172l-209 -985q-16 -70 -16 -131q0 -225 305 -225q101 0 174 23.5t119 70t73 102.5t43 134l215 1011h173l-220 -1030q-22 -104 -64.5 -184.5t-112 -143t-174.5 -96t-243 -33.5q-220 0 -342 89.5t-122 261.5zM672 1618l41 192h168l-41 -192 h-168zM1036 1618l41 192h166l-41 -192h-166z" />
<glyph unicode="&#xdd;" horiz-adv-x="1112" d="M205 1462h186l223 -708l529 708h200l-671 -866l-125 -596h-172l125 596zM666 1563l217 274h196l-284 -274h-129z" />
<glyph unicode="&#xde;" horiz-adv-x="1236" d="M98 0l310 1462h172l-54 -252h244q197 0 316.5 -89.5t119.5 -266.5q0 -225 -158 -358.5t-417 -133.5h-285l-76 -362h-172zM377 508h270q72 0 136.5 17.5t121.5 53.5t91 102t34 153q0 231 -301 231h-233z" />
<glyph unicode="&#xdf;" horiz-adv-x="1306" d="M88 0l211 997q54 256 192.5 382t366.5 126q186 0 294 -97.5t108 -264.5q0 -151 -101 -255t-276 -124v-4q134 -17 216.5 -108t82.5 -224q0 -207 -129.5 -330t-356.5 -123q-70 0 -145 13t-119 35l45 129q88 -43 217 -43q151 0 233.5 84.5t82.5 226.5q0 116 -79 188t-237 72 l31 145q154 10 258 89.5t104 213.5q0 119 -68.5 175.5t-182.5 56.5q-143 0 -237.5 -93.5t-133.5 -281.5l-209 -985h-168z" />
<glyph unicode="&#xe0;" horiz-adv-x="1114" d="M94 268q0 92 37.5 163t101.5 116.5t159 74t202 40.5t237 12q17 74 17 106q0 95 -60 144t-170 49q-140 0 -276 -43l-8 133q143 43 297 43q179 0 281 -77.5t102 -231.5q0 -55 -17 -131l-88 -420q-30 -150 -30 -246h-142q-2 12 -2 37q0 47 10 125h-4q-48 -82 -136 -134.5 t-214 -52.5q-127 0 -212 79t-85 214zM258 279q0 -76 47.5 -123t124.5 -47t139.5 28t105 78t69.5 110t42 132l19 92h-55q-104 0 -188.5 -13.5t-155 -43.5t-109.5 -84t-39 -129zM487 1573h177l155 -336h-114z" />
<glyph unicode="&#xe1;" horiz-adv-x="1114" d="M94 268q0 92 37.5 163t101.5 116.5t159 74t202 40.5t237 12q17 74 17 106q0 95 -60 144t-170 49q-140 0 -276 -43l-8 133q143 43 297 43q179 0 281 -77.5t102 -231.5q0 -55 -17 -131l-88 -420q-30 -150 -30 -246h-142q-2 12 -2 37q0 47 10 125h-4q-48 -82 -136 -134.5 t-214 -52.5q-127 0 -212 79t-85 214zM258 279q0 -76 47.5 -123t124.5 -47t139.5 28t105 78t69.5 110t42 132l19 92h-55q-104 0 -188.5 -13.5t-155 -43.5t-109.5 -84t-39 -129zM618 1237l259 336h186l-320 -336h-125z" />
<glyph unicode="&#xe2;" horiz-adv-x="1114" d="M94 268q0 92 37.5 163t101.5 116.5t159 74t202 40.5t237 12q17 74 17 106q0 95 -60 144t-170 49q-140 0 -276 -43l-8 133q143 43 297 43q179 0 281 -77.5t102 -231.5q0 -55 -17 -131l-88 -420q-30 -150 -30 -246h-142q-2 12 -2 37q0 47 10 125h-4q-48 -82 -136 -134.5 t-214 -52.5q-127 0 -212 79t-85 214zM258 279q0 -76 47.5 -123t124.5 -47t139.5 28t105 78t69.5 110t42 132l19 92h-55q-104 0 -188.5 -13.5t-155 -43.5t-109.5 -84t-39 -129zM387 1237l313 336h170l172 -336h-131l-137 238l-237 -238h-150z" />
<glyph unicode="&#xe3;" horiz-adv-x="1114" d="M94 268q0 92 37.5 163t101.5 116.5t159 74t202 40.5t237 12q17 74 17 106q0 95 -60 144t-170 49q-140 0 -276 -43l-8 133q143 43 297 43q179 0 281 -77.5t102 -231.5q0 -55 -17 -131l-88 -420q-30 -150 -30 -246h-142q-2 12 -2 37q0 47 10 125h-4q-48 -82 -136 -134.5 t-214 -52.5q-127 0 -212 79t-85 214zM258 279q0 -76 47.5 -123t124.5 -47t139.5 28t105 78t69.5 110t42 132l19 92h-55q-104 0 -188.5 -13.5t-155 -43.5t-109.5 -84t-39 -129zM365 1262q25 118 84 188t155 70q47 0 82.5 -17.5t79.5 -58.5q40 -37 63 -50.5t48 -13.5 q40 0 67.5 38t38.5 102h121q-25 -119 -83.5 -188.5t-154.5 -69.5q-48 0 -80.5 17t-80.5 60q-41 36 -64.5 50t-46.5 14q-81 0 -109 -141h-120z" />
<glyph unicode="&#xe4;" horiz-adv-x="1114" d="M94 268q0 92 37.5 163t101.5 116.5t159 74t202 40.5t237 12q17 74 17 106q0 95 -60 144t-170 49q-140 0 -276 -43l-8 133q143 43 297 43q179 0 281 -77.5t102 -231.5q0 -55 -17 -131l-88 -420q-30 -150 -30 -246h-142q-2 12 -2 37q0 47 10 125h-4q-48 -82 -136 -134.5 t-214 -52.5q-127 0 -212 79t-85 214zM258 279q0 -76 47.5 -123t124.5 -47t139.5 28t105 78t69.5 110t42 132l19 92h-55q-104 0 -188.5 -13.5t-155 -43.5t-109.5 -84t-39 -129zM453 1282l41 193h168l-41 -193h-168zM817 1282l41 193h166l-41 -193h-166z" />
<glyph unicode="&#xe5;" horiz-adv-x="1114" d="M94 268q0 92 37.5 163t101.5 116.5t159 74t202 40.5t237 12q17 74 17 106q0 95 -60 144t-170 49q-140 0 -276 -43l-8 133q143 43 297 43q179 0 281 -77.5t102 -231.5q0 -55 -17 -131l-88 -420q-30 -150 -30 -246h-142q-2 12 -2 37q0 47 10 125h-4q-48 -82 -136 -134.5 t-214 -52.5q-127 0 -212 79t-85 214zM258 279q0 -76 47.5 -123t124.5 -47t139.5 28t105 78t69.5 110t42 132l19 92h-55q-104 0 -188.5 -13.5t-155 -43.5t-109.5 -84t-39 -129zM547 1425q0 85 60.5 144t148.5 59q83 0 141.5 -60.5t58.5 -142.5q0 -86 -58.5 -145t-143.5 -59 q-87 0 -147 59t-60 145zM625 1425q0 -54 37.5 -91.5t91.5 -37.5q52 0 88.5 37.5t36.5 91.5q0 52 -37 88.5t-90 36.5q-52 0 -89.5 -37t-37.5 -88z" />
<glyph unicode="&#xe6;" horiz-adv-x="1765" d="M94 260q0 389 731 389q23 100 23 131q0 95 -60 144t-170 49q-140 0 -276 -43l-8 133q143 43 297 43q131 0 222.5 -43t127.5 -129h4q65 80 163.5 126t207.5 46q178 0 270 -96.5t92 -270.5q0 -103 -32 -231h-723q-7 -54 -7 -90q0 -143 80.5 -226t241.5 -83q120 0 229 34 v-129q-107 -39 -256 -39q-321 0 -417 240h-5q-74 -122 -169 -181t-242 -59t-235.5 77t-88.5 208zM258 268q0 -73 49 -116t135 -43q77 0 138 28t101 78.5t65 109.5t40 132l13 67h-49q-233 0 -362.5 -64t-129.5 -192zM983 645h573q11 48 11 84q0 115 -55.5 179.5t-170.5 64.5 q-136 0 -227 -92.5t-131 -235.5z" />
<glyph unicode="&#xe7;" horiz-adv-x="901" d="M127 416q0 106 26 207t77.5 188t123 153t168.5 104t207 38q124 0 209 -31l-45 -133q-76 31 -170 31q-98 0 -180 -47.5t-135 -125t-82 -172.5t-29 -194q0 -69 16 -126t50 -102.5t92 -71t135 -25.5q98 0 186 26v-131q-106 -29 -203 -29q-13 0 -71 5l-39 -99q23 2 45 2 q63 0 106 -33t43 -102q0 -186 -260 -186q-55 0 -110 12l14 88q52 -8 94 -8q144 0 144 86q0 34 -26 47.5t-85 13.5q-26 0 -84 -4l72 201q-142 40 -215.5 152.5t-73.5 265.5z" />
<glyph unicode="&#xe8;" d="M127 408q0 190 69.5 348.5t200.5 254t297 95.5q178 0 270.5 -96.5t92.5 -270.5q0 -105 -35 -245h-723q-4 -31 -4 -76q0 -143 80 -226t241 -83q121 0 230 34v-129q-107 -39 -256 -39q-117 0 -206.5 32.5t-145 91.5t-83.5 136.5t-28 172.5zM319 631h574q12 52 12 98 q0 115 -55.5 179.5t-169.5 64.5q-71 0 -132.5 -27.5t-105.5 -76t-75 -108.5t-48 -130zM489 1573h177l155 -336h-114z" />
<glyph unicode="&#xe9;" d="M127 408q0 190 69.5 348.5t200.5 254t297 95.5q178 0 270.5 -96.5t92.5 -270.5q0 -105 -35 -245h-723q-4 -31 -4 -76q0 -143 80 -226t241 -83q121 0 230 34v-129q-107 -39 -256 -39q-117 0 -206.5 32.5t-145 91.5t-83.5 136.5t-28 172.5zM319 631h574q12 52 12 98 q0 115 -55.5 179.5t-169.5 64.5q-71 0 -132.5 -27.5t-105.5 -76t-75 -108.5t-48 -130zM623 1237l258 336h186l-319 -336h-125z" />
<glyph unicode="&#xea;" d="M127 408q0 190 69.5 348.5t200.5 254t297 95.5q178 0 270.5 -96.5t92.5 -270.5q0 -105 -35 -245h-723q-4 -31 -4 -76q0 -143 80 -226t241 -83q121 0 230 34v-129q-107 -39 -256 -39q-117 0 -206.5 32.5t-145 91.5t-83.5 136.5t-28 172.5zM319 631h574q12 52 12 98 q0 115 -55.5 179.5t-169.5 64.5q-71 0 -132.5 -27.5t-105.5 -76t-75 -108.5t-48 -130zM418 1237l313 336h170l172 -336h-131l-137 238l-238 -238h-149z" />
<glyph unicode="&#xeb;" d="M127 408q0 190 69.5 348.5t200.5 254t297 95.5q178 0 270.5 -96.5t92.5 -270.5q0 -105 -35 -245h-723q-4 -31 -4 -76q0 -143 80 -226t241 -83q121 0 230 34v-129q-107 -39 -256 -39q-117 0 -206.5 32.5t-145 91.5t-83.5 136.5t-28 172.5zM319 631h574q12 52 12 98 q0 115 -55.5 179.5t-169.5 64.5q-71 0 -132.5 -27.5t-105.5 -76t-75 -108.5t-48 -130zM498 1282l41 193h168l-41 -193h-168zM862 1282l41 193h166l-41 -193h-166z" />
<glyph unicode="&#xec;" horiz-adv-x="514" d="M88 0l229 1081h168l-229 -1081h-168zM182 1573h176l156 -336h-115z" />
<glyph unicode="&#xed;" horiz-adv-x="514" d="M88 0l229 1081h168l-229 -1081h-168zM354 1237l258 336h187l-320 -336h-125z" />
<glyph unicode="&#xee;" horiz-adv-x="514" d="M88 0l229 1081h168l-229 -1081h-168zM100 1237l314 336h170l172 -336h-131l-138 238l-237 -238h-150z" />
<glyph unicode="&#xef;" horiz-adv-x="514" d="M88 0l229 1081h168l-229 -1081h-168zM178 1282l41 193h168l-41 -193h-168zM543 1282l41 193h166l-41 -193h-166z" />
<glyph unicode="&#xf0;" horiz-adv-x="1187" d="M123 403q0 121 41 232t112.5 194.5t175.5 133t222 49.5q100 0 173 -38.5t107 -94.5h4q0 200 -133 346l-331 -125v117l231 88q-84 50 -190 71l63 127q176 -42 295 -135l256 96v-118l-170 -64q139 -183 139 -475q0 -74 -8 -150t-27.5 -159t-49 -157t-76 -142t-104.5 -117 t-138 -78t-174 -29q-201 0 -309.5 117t-108.5 311zM293 414q0 -136 62 -220.5t192 -84.5q78 0 143 35.5t107 89t71 120t41.5 125.5t12.5 107q0 135 -61.5 214t-192.5 79q-88 0 -161 -42.5t-118.5 -110.5t-70.5 -149t-25 -163z" />
<glyph unicode="&#xf1;" horiz-adv-x="1204" d="M88 0l229 1081h162l-45 -200h4q57 100 150.5 162.5t212.5 62.5q151 0 228 -81.5t77 -219.5q0 -57 -19 -154l-135 -651h-168l138 647q18 88 18 144q0 76 -40.5 129t-131.5 53q-138 0 -247.5 -113.5t-145.5 -288.5l-119 -571h-168zM455 1262q25 118 84 188t155 70 q47 0 82.5 -17.5t79.5 -58.5q40 -37 63 -50.5t48 -13.5q40 0 67.5 38t38.5 102h121q-25 -119 -83.5 -188.5t-154.5 -69.5q-48 0 -80.5 17t-80.5 60q-41 36 -64.5 50t-46.5 14q-81 0 -109 -141h-120z" />
<glyph unicode="&#xf2;" horiz-adv-x="1187" d="M123 403q0 191 72 351.5t204 256t295 95.5q208 0 313 -112.5t105 -307.5q0 -91 -20.5 -186.5t-66.5 -190t-111 -168.5t-162 -120t-211 -46q-208 0 -313 116t-105 312zM293 414q0 -136 62 -220.5t192 -84.5q81 0 149.5 39.5t112.5 101t75 138.5t44.5 151t13.5 141 q0 135 -61.5 214t-192.5 79q-92 0 -168.5 -48.5t-125 -128.5t-75 -179t-26.5 -203zM528 1573h177l155 -336h-115z" />
<glyph unicode="&#xf3;" horiz-adv-x="1187" d="M123 403q0 191 72 351.5t204 256t295 95.5q208 0 313 -112.5t105 -307.5q0 -91 -20.5 -186.5t-66.5 -190t-111 -168.5t-162 -120t-211 -46q-208 0 -313 116t-105 312zM293 414q0 -136 62 -220.5t192 -84.5q81 0 149.5 39.5t112.5 101t75 138.5t44.5 151t13.5 141 q0 135 -61.5 214t-192.5 79q-92 0 -168.5 -48.5t-125 -128.5t-75 -179t-26.5 -203zM657 1237l258 336h187l-320 -336h-125z" />
<glyph unicode="&#xf4;" horiz-adv-x="1187" d="M123 403q0 191 72 351.5t204 256t295 95.5q208 0 313 -112.5t105 -307.5q0 -91 -20.5 -186.5t-66.5 -190t-111 -168.5t-162 -120t-211 -46q-208 0 -313 116t-105 312zM293 414q0 -136 62 -220.5t192 -84.5q81 0 149.5 39.5t112.5 101t75 138.5t44.5 151t13.5 141 q0 135 -61.5 214t-192.5 79q-92 0 -168.5 -48.5t-125 -128.5t-75 -179t-26.5 -203zM436 1237l314 336h170l172 -336h-131l-138 238l-237 -238h-150z" />
<glyph unicode="&#xf5;" horiz-adv-x="1187" d="M123 403q0 191 72 351.5t204 256t295 95.5q208 0 313 -112.5t105 -307.5q0 -91 -20.5 -186.5t-66.5 -190t-111 -168.5t-162 -120t-211 -46q-208 0 -313 116t-105 312zM293 414q0 -136 62 -220.5t192 -84.5q81 0 149.5 39.5t112.5 101t75 138.5t44.5 151t13.5 141 q0 135 -61.5 214t-192.5 79q-92 0 -168.5 -48.5t-125 -128.5t-75 -179t-26.5 -203zM436 1262q25 118 84.5 188t155.5 70q47 0 82.5 -17.5t79.5 -58.5q40 -37 63 -50.5t47 -13.5q40 0 68 38.5t39 101.5h121q-25 -119 -83.5 -188.5t-154.5 -69.5q-48 0 -81.5 17.5t-80.5 59.5 q-41 36 -64 50t-46 14q-81 0 -109 -141h-121z" />
<glyph unicode="&#xf6;" horiz-adv-x="1187" d="M123 403q0 191 72 351.5t204 256t295 95.5q208 0 313 -112.5t105 -307.5q0 -91 -20.5 -186.5t-66.5 -190t-111 -168.5t-162 -120t-211 -46q-208 0 -313 116t-105 312zM293 414q0 -136 62 -220.5t192 -84.5q81 0 149.5 39.5t112.5 101t75 138.5t44.5 151t13.5 141 q0 135 -61.5 214t-192.5 79q-92 0 -168.5 -48.5t-125 -128.5t-75 -179t-26.5 -203zM508 1282l41 193h168l-41 -193h-168zM872 1282l41 193h166l-41 -193h-166z" />
<glyph unicode="&#xf7;" d="M143 582v127h934v-127h-934zM532 186v179h173v-179h-173zM532 922v178h173v-178h-173z" />
<glyph unicode="&#xf8;" horiz-adv-x="1187" d="M12 31l156 147q-45 91 -45 225q0 191 72 351.5t204 256t295 95.5q212 0 322 -123l131 125l59 -64l-141 -135q47 -96 47 -223q0 -91 -20.5 -186.5t-66.5 -190t-111 -168.5t-162 -120t-211 -46q-216 0 -326 129l-143 -137zM293 414q0 -66 10 -107l594 563q-64 103 -209 103 q-92 0 -168.5 -48.5t-125 -128.5t-75 -179t-26.5 -203zM336 219q63 -110 211 -110q81 0 149.5 39.5t112.5 101t75 138.5t44.5 151t13.5 141q0 50 -10 102z" />
<glyph unicode="&#xf9;" horiz-adv-x="1204" d="M145 276q0 57 19 154l135 651h168l-137 -647q-19 -93 -19 -143q0 -35 7.5 -65t25 -57.5t51.5 -43.5t82 -16q139 0 252 113.5t148 287.5l118 571h168l-229 -1081h-162l45 201h-4q-56 -99 -152 -162.5t-215 -63.5q-151 0 -226 81.5t-75 219.5zM516 1573h176l156 -336h-115z " />
<glyph unicode="&#xfa;" horiz-adv-x="1204" d="M145 276q0 57 19 154l135 651h168l-137 -647q-19 -93 -19 -143q0 -35 7.5 -65t25 -57.5t51.5 -43.5t82 -16q139 0 252 113.5t148 287.5l118 571h168l-229 -1081h-162l45 201h-4q-56 -99 -152 -162.5t-215 -63.5q-151 0 -226 81.5t-75 219.5zM678 1237l258 336h186 l-319 -336h-125z" />
<glyph unicode="&#xfb;" horiz-adv-x="1204" d="M145 276q0 57 19 154l135 651h168l-137 -647q-19 -93 -19 -143q0 -35 7.5 -65t25 -57.5t51.5 -43.5t82 -16q139 0 252 113.5t148 287.5l118 571h168l-229 -1081h-162l45 201h-4q-56 -99 -152 -162.5t-215 -63.5q-151 0 -226 81.5t-75 219.5zM430 1237l313 336h170 l172 -336h-131l-137 238l-237 -238h-150z" />
<glyph unicode="&#xfc;" horiz-adv-x="1204" d="M145 276q0 57 19 154l135 651h168l-137 -647q-19 -93 -19 -143q0 -35 7.5 -65t25 -57.5t51.5 -43.5t82 -16q139 0 252 113.5t148 287.5l118 571h168l-229 -1081h-162l45 201h-4q-56 -99 -152 -162.5t-215 -63.5q-151 0 -226 81.5t-75 219.5zM514 1282l41 193h168 l-41 -193h-168zM879 1282l41 193h165l-41 -193h-165z" />
<glyph unicode="&#xfd;" horiz-adv-x="1011" d="M20 -399l261 403l-95 1077h170l66 -886h4l543 886h184l-950 -1480h-183zM598 1237l258 336h186l-319 -336h-125z" />
<glyph unicode="&#xfe;" horiz-adv-x="1212" d="M0 -399l408 1904h167l-129 -579h5q53 81 135.5 130.5t185.5 49.5q84 0 150.5 -25.5t107.5 -67.5t68.5 -100.5t38 -118.5t10.5 -128q0 -139 -40 -265t-111 -220.5t-176 -150t-228 -55.5q-228 0 -307 168h-4l-115 -542h-166zM344 397q0 -133 64 -210.5t186 -77.5 q75 0 140 36t108.5 94.5t74.5 132t45.5 148t14.5 144.5q0 65 -12.5 118.5t-39 97.5t-73.5 68.5t-111 24.5q-72 0 -136 -33.5t-111 -90t-81.5 -130.5t-51.5 -156.5t-17 -165.5z" />
<glyph unicode="&#xff;" horiz-adv-x="1011" d="M20 -399l261 403l-95 1077h170l66 -886h4l543 886h184l-950 -1480h-183zM428 1282l41 193h168l-41 -193h-168zM793 1282l41 193h165l-41 -193h-165z" />
<glyph unicode="&#x152;" horiz-adv-x="1908" d="M170 553q0 146 36 281t108 249.5t172.5 199t238 132t295.5 47.5h952l-30 -145h-560l-104 -492h530l-30 -145h-531l-112 -535h610l-31 -145h-942q-157 0 -275 42.5t-188 119t-104.5 174.5t-34.5 217zM344 563q0 -199 111.5 -308.5t337.5 -109.5h170l247 1172h-198 q-161 0 -290 -60.5t-210.5 -164.5t-124.5 -239.5t-43 -289.5z" />
<glyph unicode="&#x153;" horiz-adv-x="1884" d="M123 403q0 191 72 351.5t204 256t295 95.5q141 0 236 -59t131 -164q70 107 178.5 165t235.5 58q178 0 270 -96.5t92 -270.5q0 -105 -35 -245h-723q-4 -31 -4 -76q0 -143 80.5 -226t241.5 -83q120 0 229 34v-129q-107 -39 -256 -39q-158 0 -262.5 62t-151.5 174 q-144 -236 -415 -236q-208 0 -313 116t-105 312zM293 414q0 -136 62 -220.5t192 -84.5q81 0 149.5 39.5t112.5 101t75 138.5t44.5 151t13.5 141q0 135 -61.5 214t-192.5 79q-92 0 -168.5 -48.5t-125 -128.5t-75 -179t-26.5 -203zM1100 631h573q13 57 13 98 q0 115 -55.5 179.5t-170.5 64.5q-94 0 -170 -49t-121 -123.5t-69 -169.5z" />
<glyph unicode="&#x178;" horiz-adv-x="1112" d="M205 1462h186l223 -708l529 708h200l-671 -866l-125 -596h-172l125 596zM537 1618l41 192h167l-40 -192h-168zM901 1618l41 192h166l-41 -192h-166z" />
<glyph unicode="&#x2c6;" horiz-adv-x="952" d="M299 1237l313 336h170l172 -336h-131l-137 238l-237 -238h-150z" />
<glyph unicode="&#x2dc;" horiz-adv-x="952" d="M301 1262q25 118 84.5 188t155.5 70q47 0 82 -17.5t79 -58.5q40 -37 63 -50.5t48 -13.5q40 0 68 38.5t39 101.5h120q-25 -119 -83 -188.5t-154 -69.5q-48 0 -81.5 17.5t-80.5 59.5q-41 36 -64.5 50t-46.5 14q-80 0 -108 -141h-121z" />
<glyph unicode="&#x2000;" horiz-adv-x="968" />
<glyph unicode="&#x2001;" horiz-adv-x="1937" />
<glyph unicode="&#x2002;" horiz-adv-x="968" />
<glyph unicode="&#x2003;" horiz-adv-x="1937" />
<glyph unicode="&#x2004;" horiz-adv-x="645" />
<glyph unicode="&#x2005;" horiz-adv-x="484" />
<glyph unicode="&#x2006;" horiz-adv-x="322" />
<glyph unicode="&#x2007;" horiz-adv-x="322" />
<glyph unicode="&#x2008;" horiz-adv-x="242" />
<glyph unicode="&#x2009;" horiz-adv-x="387" />
<glyph unicode="&#x200a;" horiz-adv-x="107" />
<glyph unicode="&#x2010;" horiz-adv-x="819" d="M176 545l31 141h514l-31 -141h-514z" />
<glyph unicode="&#x2011;" horiz-adv-x="819" d="M176 545l31 141h514l-31 -141h-514z" />
<glyph unicode="&#x2012;" horiz-adv-x="819" d="M176 545l31 141h514l-31 -141h-514z" />
<glyph unicode="&#x2013;" horiz-adv-x="1024" d="M84 559l22 111h914l-23 -111h-913z" />
<glyph unicode="&#x2014;" horiz-adv-x="1638" d="M84 559l22 111h1528l-22 -111h-1528z" />
<glyph unicode="&#x2018;" horiz-adv-x="573" d="M285 1051l266 454h113l-189 -454h-190z" />
<glyph unicode="&#x2019;" horiz-adv-x="573" d="M283 1049l190 456h191l-269 -456h-112z" />
<glyph unicode="&#x201a;" horiz-adv-x="573" d="M0 -283l188 455h191l-268 -455h-111z" />
<glyph unicode="&#x201c;" horiz-adv-x="860" d="M283 1049l270 456h111l-201 -456h-180zM578 1049l262 456h110l-192 -456h-180z" />
<glyph unicode="&#x201d;" horiz-adv-x="860" d="M285 1051l188 454h182l-260 -454h-110zM569 1051l199 454h182l-270 -454h-111z" />
<glyph unicode="&#x201e;" horiz-adv-x="860" d="M0 -283l188 455h183l-260 -455h-111zM285 -283l198 455h183l-271 -455h-110z" />
<glyph unicode="&#x2022;" horiz-adv-x="952" d="M197 674q0 140 98 239t237 99q141 0 239.5 -99t98.5 -239t-98.5 -238t-239.5 -98q-139 0 -237 98t-98 238z" />
<glyph unicode="&#x2026;" horiz-adv-x="1722" d="M104 0l43 207h207l-43 -207h-207zM676 0l43 207h207l-43 -207h-207zM1247 0l43 207h207l-43 -207h-207z" />
<glyph unicode="&#x202f;" horiz-adv-x="387" />
<glyph unicode="&#x2039;" horiz-adv-x="700" d="M199 614l2 11l327 374h158l-334 -395l160 -385h-147z" />
<glyph unicode="&#x203a;" horiz-adv-x="700" d="M111 219l333 395l-159 385h147l166 -395l-2 -10l-328 -375h-157z" />
<glyph unicode="&#x205f;" horiz-adv-x="484" />
<glyph unicode="&#x20ac;" horiz-adv-x="1351" d="M100 541l54 112h131q11 106 39 191h-160l51 112h145q47 112 115 205.5t159.5 168t212.5 116t259 41.5q163 0 266 -41l-51 -137q-88 32 -219 32q-203 0 -346.5 -104.5t-218.5 -280.5h659l-49 -112h-651q-32 -91 -41 -191h630l-51 -112h-583q0 -88 23.5 -162t72 -133 t130 -92t189.5 -33q153 0 285 49l18 -139q-148 -56 -329 -56q-137 0 -245 43.5t-176 121t-103 179.5t-35 222h-181z" />
<glyph unicode="&#x2122;" horiz-adv-x="1904" d="M326 1360v102h548v-102h-210v-682h-123v682h-215zM981 678v784h197l186 -628h4l186 628h191v-784h-113v659h-4l-209 -659h-112l-207 659h-4v-659h-115z" />
<glyph unicode="&#xe000;" horiz-adv-x="1085" d="M0 0v1085h1085v-1085h-1085z" />
</font>
</defs>
</svg>
