<?xml version="1.0" standalone="no"?>
<!DOCTYPE svg PUBLIC "-//W3C//DTD SVG 1.1//EN" "http://www.w3.org/Graphics/SVG/1.1/DTD/svg11.dtd" >
<svg xmlns="http://www.w3.org/2000/svg">
<metadata>Generated by IcoMoon</metadata>
<defs>
<font id="psdoc-icons" horiz-adv-x="1024">
<font-face units-per-em="1024" ascent="960" descent="-64" />
<missing-glyph horiz-adv-x="1024" />
<glyph unicode="&#x20;" d="" horiz-adv-x="512" />
<glyph unicode="&#xe000;" d="M4.392 30.372v91.31c0 0 5.95 56.054 73.442 73.442 0 0 108.708 39.69 193.854 76.748 44.032 19.148 53.514 30.668 97.926 50.288 0 0 4.638 22.804 2.96 36.382h34.744c0 0 7.936-4.628 0 48.968 0 0-42.342 11.234-44.318 96.594 0 0-31.806-10.712-33.752 41.022-1.32 35.062-28.456 65.506 10.588 90.644l-19.856 53.586c0 0-39.69 216.34 74.434 184.586-48.138 57.56 272.926 115.108 293.776-67.48 0 0 14.868-98.58 0-166.062 0 0 46.888 5.428 15.544-84.696 0 0-17.204-64.84-43.674-50.278 0 0 4.322-82.032-37.366-95.948 0 0 2.97-43.664 2.97-46.632l39.71-5.95c0 0-5.97-35.738 0.994-39.69 0 0 47.084-32.256 103.198-46.654 108.186-27.77 236.196-75.418 236.196-117.104 0 0 10.926-55.572 10.926-123.054l-1012.296-0.002z" />
<glyph unicode="&#xe001;" d="M551.174 73.268v614.040c0 28.826 13.45 49.008 33.634 41.318 26.906-6.728 32.67-33.634 32.67-62.458v-245.044c102.82-49.966 184.5 0 184.5 131.65 0 134.534-48.046 195.066-187.382 243.118-55.732 19.216-158.552 49.966-228.7 62.458v-733.194l165.278-51.888zM945.158 214.528c113.392 40.356 92.248 101.858-10.568 133.566-24.028 7.69-91.294 26.91-177.776 24.986-62.458-1.926-111.468-11.536-162.402-27.868v-99.942l167.204 59.586c0 0 15.376 5.766 37.474 7.68 26.91 1.926 42.286 0 50.934-0.958 3.84-0.958 22.104-3.84 24.986-13.45 1.914-9.61-12.492-18.258-25.944-23.066-7.69-2.882-137.416-49.008-254.654-90.328v-96.092l350.746 125.886zM341.688 170.328v83.6l-64.384-22.104c-29.788-10.568-82.642-19.216-110.504-5.766-26.91 12.492 4.808 27.868 20.172 33.634l154.712 54.774v97.060l-260.404-93.216c-38.44-13.45-76.876-38.44-76.876-66.31 0-28.826 23.066-48.046 97.050-68.224 55.736-14.416 136.458-28.824 240.234-13.448z" />
<glyph unicode="&#xe002;" d="M856.32 953.252h-690.104c-88.924 0-161.27-72.346-161.27-161.27v-690.094c0-88.924 72.346-161.27 161.27-161.27h690.104c88.924 0 161.27 72.346 161.27 161.27v690.084c0 88.924-72.346 161.28-161.27 161.28zM239.994 118.394c-40.090 0-72.582 32.492-72.582 72.57 0 40.090 32.492 72.592 72.582 72.592s72.582-32.502 72.582-72.592c0-40.078-32.492-72.57-72.582-72.57zM239.994 374.344c-40.090 0-72.582 32.502-72.582 72.592 0 40.080 32.492 72.57 72.582 72.57s72.582-32.492 72.582-72.57c0-40.090-32.492-72.592-72.582-72.592zM239.994 630.302c-40.090 0-72.582 32.502-72.582 72.592 0 40.080 32.492 72.57 72.582 72.57s72.582-32.492 72.582-72.57c0-40.1-32.492-72.592-72.582-72.592zM855.122 188.816c0-37.95-31.068-69.028-69.018-69.028h-343.408c-37.94 0-69.018 31.068-69.018 69.028v4.312c0 37.94 31.078 69.018 69.018 69.018h343.398c37.95 0 69.018-31.078 69.018-69.018v-4.312zM855.122 444.774c0-37.95-31.068-69.018-69.018-69.018h-343.408c-37.94 0-69.018 31.068-69.018 69.018v4.312c0 37.94 31.078 69.018 69.018 69.018h343.398c37.95 0 69.018-31.078 69.018-69.018v-4.312zM855.122 700.724c0-37.95-31.068-69.018-69.018-69.018h-343.408c-37.94 0-69.018 31.068-69.018 69.018v4.322c0 37.94 31.078 69.018 69.018 69.018h343.398c37.95 0 69.018-31.078 69.018-69.018v-4.322z" />
<glyph unicode="&#xe003;" d="M966.216 124.846l-172.038 172.058c46.746 67.308 74.22 149.054 74.22 237.056 0 229.928-187.106 416.958-417.024 416.958-229.928 0-416.968-187.024-416.968-416.954 0-229.986 187.038-417.004 416.968-417.004 63.36 0 123.422 14.234 177.254 39.64l184.678-184.704c19.916-19.846 46.484-30.776 74.762-30.776 28.974 0 56.32 11.382 76.98 32 42.138 42.142 42.656 110.26 1.168 151.726zM201.18 533.964c0 137.944 112.246 250.204 250.188 250.204 137.958 0 250.214-112.262 250.214-250.204 0-137.984-112.256-250.24-250.214-250.24-137.936 0-250.188 112.252-250.188 250.24z" />
<glyph unicode="&#xe004;" d="M1004.678 445.322c0 272.942-221.552 494.504-492.222 494.504-274.094 0-496.794-221.562-496.794-494.504 0-272.952 222.7-495.646 496.794-495.646 270.668 0 492.222 222.694 492.222 495.646zM833.372 182.65l-59.382-59.382-261.53 263.808-263.814-263.808-60.528 59.382 262.672 262.672-262.67 263.808 60.528 58.246 263.814-264.96 261.53 264.96 59.382-58.246-263.808-263.808 263.806-262.672z" />
<glyph unicode="&#xe005;" d="M907.838 801.31v-843.956l-631.794 0.002c-92.724 0-166.584 64.436-166.584 160.308v730.802c0 51.86 42.424 94.3 94.3 94.3h584.642v-724.532h-512.358c-64.436 0-110.014-34.576-110.014-97.438v-3.144c0-62.868 45.578-103.732 110.014-103.732h587.786l0.002 787.39h44.006zM788.398 139.654h-506.060c-14.146 0-26.716-7.854-26.716-20.428 0-15.714 12.574-23.568 26.716-23.568h506.066v43.996z" />
<glyph unicode="&#xe006;" d="M755.226 578.806l-353.884-353.868 79.58-9.478 202.946-202.946c19.722-19.702 51.65-19.702 71.342 0v320.844c21.3 35.322 33.588 76.672 33.588 120.908s-12.288 85.602-33.588 120.924v3.62h0.016zM1013.97 930.252c-28.692 28.62-75.084 28.662-103.72 0l-155.024-154.992v129.060c-19.692 19.718-51.62 19.718-71.342 0l-202.952-202.946-302.684-35.998c-19.896 0-35.998-16.108-35.998-35.998v-341.898c0-19.856 16.102-35.998 35.998-35.998l47.508-5.658-198.39-198.402c-28.642-28.636-28.672-75.106 0-103.782 0.82-0.844 1.828-1.398 2.704-2.212l986.102 986.126c-0.778 0.856-1.382 1.86-2.202 2.698zM290.934 351.34c0-8.786-10.158-15.878-22.686-15.878-12.534 0-22.692 7.092-22.692 15.878v214.148c0 8.744 10.158 15.882 22.692 15.882 12.528 0 22.686-7.138 22.686-15.882v-214.148z" />
<glyph unicode="&#xe007;" d="M706.744 426.322l173.056-173.046 144.19 144.19v-461.466h-461.466l144.22 144.22-173.046 173.056c-31.856 31.856-31.856 83.508 0 115.364l57.682 57.682c31.858 31.856 83.518 31.856 115.364 0zM317.236 469.678l-173.046 173.046-144.19-144.19v461.466h461.466l-144.23-144.22 173.056-173.056c31.856-31.856 31.856-83.508 0-115.364l-57.682-57.682c-31.858-31.856-83.518-31.856-115.374 0z" />
<glyph unicode="&#xe008;" d="M854.036 465.92l-166.636 153.488-1.054-1.054-356.31 323.88c0 0-96.614 41.994-149.616-11.756-53.012-53.74-10.27-148.214-10.27-148.214l356.148-323.748-338.896-338.462c0 0-55.378-74.956 15.248-146.554 70.626-71.608 151.388-6.932 151.388-6.932l499.998 499.352z" />
<glyph unicode="&#xe009;" d="M582.63 690.81c-27.674 30.372-73.984 31.176-102.912 1.9l-450.994-457.538c-28.928-29.332-18.038-53.31 24.176-53.31h917.186c42.26 0 54.144 24.832 26.374 55.208l-413.83 453.74z" />
<glyph unicode="&#xe00a;" d="M186.686 526.812c0 23.68-13.204 43.038-46.684 43.038h-127.638v-19.702h118.078c18.238 1.438 23.48-12.862 23.48-23.332 0-13.666-4.52-23.076-23.48-23.798l-77.322 0.002c-23.91 0-40.76-18.104-40.76-44.974v-47.826h32.994v49.644c0 13.666 7.742 21.632 18.216 21.632h76.426c33.48 0 46.69 18.446 46.69 45.316zM246.226 526.586v-72.868c0-13.21-7.618-23.572-20.372-23.572h-62.31v-19.696h71.418c33.25 0 45.24 16.62 45.24 43.27v72.866c0 10.7 3.312 24.28 19.892 23.558h61.364v19.706h-70.928c-33.020 0-44.304-20.044-44.304-43.264zM489.656 454.82c-3.958-7.552-11.28-5.96-14.504 0.512l-61.794 114.724h-37.126c0 0 74.624-140.734 77.138-145.044 2.52-4.316 8.074-14.438 21.382-15.16 13.306-0.722 21.55 14.050 24.428 18.718 2.872 4.674 75.142 141.48 75.142 141.48h-23.188c-0.002 0.006-58.242-109.122-61.478-115.23zM878.336 570.332c-13.328 0.722-21.586-14.074-24.468-18.754s-75.294-141.752-75.294-141.752h23.234l17.638 33.766 102.17-0.302 18.232-33.46h37.192c0 0-74.758 141-77.282 145.32-2.514 4.318-8.090 14.466-21.422 15.182zM830.52 463.478c0 0 31.232 58.68 32.886 61.804 3.962 7.562 11.304 5.964 14.53-0.518l33.132-61.502-80.548 0.216zM810.388 550.86l0.154 19.64c0 0-89.026-0.108-103.23-0.108h-56.382v-19.416h46.028l17.044-0.098v-139.632h33.224l0.002 117.076-0.492 22.676 63.652-0.138zM595.538 410.348h33.786v159.17h-33.786v-159.17zM1005.89 422.594l-3.020-7.87-3.046 7.87h-3.128v-11.106h2.022v8.684h0.052l3.318-8.684h1.51l3.318 8.684h0.052v-8.684h2.022v11.106h-3.1zM985.472 420.848h3.4v-9.36h2.16v9.36h3.4v1.752h-8.954v-1.752z" />
<glyph unicode="&#xe00b;" d="M864.512 180.48c-44.022 0-79.724-35.712-79.724-79.76 0-44.042 35.706-79.688 79.724-79.688 44.016 0 79.718 35.65 79.718 79.688 0 44.048-35.706 79.76-79.718 79.76zM192.318 180.48c-43.992 0-79.75-35.712-79.75-79.76 0-44.042 35.758-79.688 79.75-79.688s79.75 35.65 79.75 79.688c-0.002 44.048-35.764 79.76-79.75 79.76zM42.824 874.968h173.794l31.084-73.544c1.798 0.328 3.66 0.568 5.694 0.568h732.152c17.188 0 28.324-13.768 24.72-30.576l-78.638-366.326c-3.6-16.798-20.608-30.602-37.836-30.602h-609.962c-1.68 0-3.118 0.24-4.618 0.482l-19.984-52.572h721.946c20.132 0 36.486-16.322 36.486-36.49 0-20.162-16.354-36.48-36.486-36.48l-827.812-0.002 117.626 309.32-102.742 243.25h-125.424c-20.158 0-36.48 16.322-36.48 36.486 0 20.132 16.328 36.486 36.48 36.486z" />
<glyph unicode="&#xe00c;" d="M839.946 574.654l0.016 3.86v347.13c-20.998 21.022-55.050 21.022-76.078 0l-216.432-216.422-322.786-38.394c-21.218 0-38.39-17.178-38.39-38.39v-364.6c0-21.176 17.172-38.39 38.39-38.39l322.774-38.404 216.422-216.422c21.032-21.012 55.080-21.012 76.078 0v342.15c22.712 37.668 35.82 81.762 35.82 128.942s-13.102 91.272-35.814 128.94zM344.832 335.944c0-9.37-10.828-16.932-24.192-16.932-13.368 0-24.198 7.562-24.198 16.932v228.368c0 9.324 10.828 16.936 24.198 16.936 13.358 0 24.192-7.614 24.192-16.936v-228.368z" />
<glyph unicode="&#xe00d;" d="M292.834 750.434h-106.020v106.020h-70.678v-106.014l-106.018-0.002v-70.682h106.024v-106.024h70.676v106.024h106.024l0.002 70.678zM1006.828 739.486v-697.83h-522.4c-76.666 0-137.744 53.278-137.744 132.552l0.002 604.272c0 42.88 35.078 77.972 77.972 77.972h483.416v-599.080h-423.646c-53.278 0-90.968-28.59-90.968-80.568v-2.6c0-51.984 37.684-85.77 90.968-85.77h486.016v651.052h36.384zM908.072 192.394h-418.442c-11.694 0-22.088-6.492-22.088-16.89 0-12.994 10.398-19.486 22.088-19.486h418.442v36.376z" />
<glyph unicode="&#xe00e;" d="M913.792 953.258h-803.584c-57.13 0-103.51-46.336-103.51-103.51v-803.584c0-57.13 46.336-103.51 103.51-103.51h803.584c57.174 0 103.51 46.336 103.51 103.51v803.628c-0.044 57.174-46.336 103.466-103.51 103.466zM512 158.378c-239.958 0-434.474 289.622-434.474 289.622s194.516 289.664 434.474 289.664c239.958 0 434.474-289.664 434.474-289.664s-194.516-289.622-434.474-289.622zM512 629.034c-99.968 0-181.034-81.066-181.034-181.034 0-99.926 81.066-181.034 181.034-181.034 99.926 0 181.034 81.11 181.034 181.034 0 99.968-81.108 181.034-181.034 181.034zM512 375.594c-39.978 0-72.406 32.426-72.406 72.406 0 39.978 32.426 72.406 72.406 72.406 39.978 0 72.406-32.426 72.406-72.406 0-39.978-32.428-72.406-72.406-72.406z" />
<glyph unicode="&#xe00f;" d="M574.434 694.912l238.684 79.576 200.208-592.86-238.684-79.576-200.208 592.86zM7.802 102.124h251.74l0.002 687.84h-251.742v-687.84zM70.738 664.904h125.864v-62.536h-125.864v62.536zM322.478 102.124h251.746v687.84h-251.746v-687.84zM385.418 664.904h125.866v-62.536h-125.866v62.536z" />
<glyph unicode="&#xe010;" d="M623.58 592.83l-125.292-0.006c-38.646 0-57.57-23.818-57.57-54.824v-94.192c0-19.184-9.072-32.984-28.304-32.984h-109.546c-0.784 0-1.424-0.646-1.424-1.444v-18.924c0-0.788 0.65-1.434 1.448-1.434h124.006c38.64 0 57.57 23.752 57.57 54.748l0.002 94.27c0 19.194 9.094 33.030 28.282 33.030h110.838c0.82 0 1.424 0.64 1.424 1.424v18.898c-0.006 0.798-0.65 1.438-1.434 1.438zM254.766 592.808l-240.998 0.016c-0.778 0-1.414-0.646-1.414-1.434v-18.914c0-0.784 0.634-1.424 1.428-1.424h226.524c19.19 0 28.298-13.818 28.298-33.018 0-19.174-9.082-32.988-28.298-32.988l-179.174 0.002c-27.832 0-48.774-23.384-48.774-54.384v-60.19c0-0.784 0.64-1.428 1.428-1.428h40.868c0.774 0 1.418 0.646 1.418 1.428l0.002 60.184c0 19.194 11.070 32.6 26.942 32.6h171.75c38.656 0 57.57 23.756 57.57 54.738 0 30.98-18.914 54.812-57.57 54.812zM949.232 493.45c-0.62 0.624-0.634 1.68-0.010 2.274 11.97 9.918 17.926 24.94 17.926 42.276 0 30.982-18.924 54.814-57.57 54.814l-240.994 0.016c-0.778 0-1.444-0.646-1.444-1.444v-18.908c0-0.794 0.66-1.424 1.444-1.424h226.524c19.21 0 28.304-13.818 28.304-33.018 0-19.174-9.078-32.988-28.304-32.988h-0.194l-0.066 0.006-226.264-0.020c-0.778 0-1.444-0.646-1.444-1.428v-18.914c0-0.784 0.66-1.424 1.444-1.424h226.54c24.99-0.2 28.278-24.51 28.278-36.956l0.026-2.488c0-19.21-9.114-33.024-28.304-33.024h-226.54c-0.778 0-1.444-0.646-1.444-1.424v-18.908c0-0.788 0.66-1.434 1.444-1.434l240.994 0.010c38.662 0 57.58 25.682 57.58 54.814v2.452c-0.006 18.534-5.98 36.256-17.926 47.14zM987.366 402.714h5.012v-13.646h1.982v13.646h4.998v1.72h-11.992zM1012.828 404.434l-4.398-13.072-4.378 13.072h-2.796v-15.366h2.028v12.508l4.142-12.508h2.028l4.168 12.508v-12.508h1.982v15.366z" />
<glyph unicode="&#xe011;" d="M940.964 605.62c2.652 0.404 5.324 0.778 7.972 1.408 1.566-0.532 3.19-0.912 4.87-1.132 1.838-0.804 3.62-1.762 5.314-2.908 0.276-0.286 0.84-0.88 1.116-1.168 1.008-1.296 2.022-2.626 3.026-3.978 0.506-1.864 1.080-3.706 1.608-5.592 0.164-0.010 0.486-0.036 0.65-0.046 0.568-51.016 0-102.026 0.286-153.042 15.068-0.246 30.146-0.082 45.22-0.108-0.072-0.482-0.184-1.444-0.25-1.936l1.192-0.040c-0.072-6.988-0.026-13.978-0.098-20.962-15.33-0.414-30.658 0.102-45.982-0.276-0.266-7.628-0.010-15.248-0.194-22.872-15.006-0.226-30.014 0.026-45.004-0.112-0.276 0.414-0.84 1.25-1.1 1.67 0.128 7.112 0.286 14.248-0.148 21.36-80.518 0.21-161.014 0-241.526 0.108-4.080 0.010-8.248 0.164-11.864 2.248l-1.090-0.036c-2.212 1.704-3.846 3.952-5.212 6.338 0.076 2.048 0.216 4.102 0.44 6.138 1.146 1.608 2.32 3.2 3.512 4.782 2.002 1.832 4.030 3.65 6.128 5.386 3.87 2.248 7.66 4.66 11.54 6.912 1.53 1.018 3.046 2.084 4.556 3.17 0.378-0.040 1.158-0.128 1.542-0.168l0.076 0.968c3.062 1.798 6.062 3.712 9.164 5.422l0.148 0.824 1.368-0.282 0.072 1.392c0.404-0.040 1.234-0.128 1.644-0.174 0.532 0.45 1.598 1.356 2.124 1.808 1.326 0.712 2.694 1.402 4.066 2.078l0.082 1.008c0.502-0.072 1.496-0.21 1.996-0.276l0.102 0.984c2.258 1.306 4.486 2.672 6.718 4.044 1.316 0.824 2.672 1.634 4.044 2.396l0.082 0.338c2.048 1.126 4.080 2.32 6.104 3.522 0.512 0.344 1.542 1.018 2.068 1.356 1.634 0.958 3.252 1.946 4.884 2.928 2.76 1.624 5.448 3.364 8.222 4.982 1.972 1.204 3.928 2.468 5.796 3.846 0.266 0.026 0.778 0.062 1.030 0.082 1.884 1.572 3.984 2.872 6.2 3.984l0.128 0.364c3.476 1.956 6.882 4.044 10.246 6.21 2.314 1.388 4.644 2.78 6.846 4.368l1.080-0.010c0.552 0.492 1.658 1.47 2.202 1.956 1.506 0.866 2.97 1.762 4.49 2.652 2.74 1.716 5.488 3.43 8.29 5.084 1.336 0.814 2.698 1.634 4.090 2.412l0.036 0.942c0.542-0.076 1.644-0.266 2.202-0.348l-0.066 1.030c1.884 1.014 3.768 2.032 5.688 3.010l0.026 0.42c2.688 1.496 5.31 3.102 7.818 4.9 0.378 0 1.122 0.026 1.506 0.026l0.036 0.808c1.398 0.886 2.852 1.776 4.25 2.704l0.916-0.010c0.486 0.378 1.47 1.146 1.956 1.536l0.148 0.778c0.374-0.026 1.1-0.056 1.464-0.066 1.204 0.932 2.478 1.864 3.758 2.74 2.33 1.3 4.648 2.658 6.748 4.342 0.344-0.030 1.064-0.076 1.424-0.112l0.164 0.824c4.982 2.78 9.666 6.062 14.612 8.898 2.672 1.658 5.34 3.354 8.018 5.074 4.008 2.274 8.074 4.496 11.714 7.358 0.25 0 0.762 0.010 1.018 0.026 1.832 1.398 3.778 2.652 5.76 3.856 2.836 1.694 5.638 3.416 8.35 5.33l1.368-0.128c0.046 0.23 0.138 0.692 0.184 0.932 0.476 0.384 1.408 1.152 1.884 1.53l0.942-0.066c1.884 1.434 3.906 2.688 5.976 3.856 1.204 0.762 2.448 1.53 3.676 2.294 0.926 0.588 1.864 1.182 2.826 1.762 2.612 1.46 5.156 3.036 7.496 4.9 0.25-0.030 0.762-0.112 1.030-0.148 1.798 1.67 3.892 2.97 6.098 4.060l0.138 0.39c1.054 0.578 2.12 1.158 3.2 1.736 2.35 1.53 4.762 3.010 7.23 4.392 0.994 0.788 2.012 1.566 3.056 2.35 0.384-0.020 1.162-0.066 1.556-0.092l0.128 1.204 1.296-0.138 0.108 1.296c0.492-0.056 1.506-0.174 2.002-0.23l0.098 1.018c2.888 1.444 5.754 2.944 8.75 4.218 1.15 0.476 2.328 0.926 3.546 1.388zM905.662 558.408c-5.192-3.302-10.578-6.278-15.61-9.826-1.182-0.624-2.386-1.26-3.532-1.9-1.53-0.962-3.046-1.914-4.542-2.888-1.736-1.008-3.44-2.038-5.166-3.026l-0.226-0.814-0.942 0.164c-0.552-0.368-1.68-1.122-2.248-1.496-1.542-1.018-3.062-2.074-4.506-3.19-0.368 0.062-1.1 0.184-1.47 0.246l-0.128-0.962c-1.356-0.784-2.698-1.608-3.998-2.452-1.726-1.014-3.43-2.032-5.14-3l-0.134-0.4c-2.048-1.132-4.044-2.324-6.042-3.512-1.3-0.88-2.612-1.782-3.84-2.704-0.404 0.040-1.204 0.138-1.598 0.18l-0.036-1.372-1.356 0.18-0.026-1.356c-0.518 0.062-1.542 0.174-2.048 0.236l-0.246-1.438c-0.368 0-1.122 0.026-1.506 0.026-3.554-2.672-7.408-4.91-11.248-7.128l-0.174-0.318c-2.074-1.136-4.086-2.366-6.068-3.624-7.302-4.542-14.648-9.036-21.97-13.558-1.32-0.824-2.622-1.608-3.962-2.344l-0.066-0.354c-3.062-1.68-6.026-3.512-9.052-5.212-1.496-1.050-2.97-2.104-4.404-3.174-0.266-0.036-0.808-0.108-1.080-0.138-0.692-0.42-2.074-1.254-2.764-1.67l0.020-0.41c-1.342-0.706-2.636-1.424-3.932-2.16-3.292-2.156-6.666-4.184-10.024-6.236-3.368-2.16-6.744-4.358-10.322-6.164l-0.026-0.486c-1.228-0.542-2.432-1.096-3.614-1.658l-0.076-0.466c-2.412-1.362-4.766-2.826-7.194-4.122l-0.122-0.866c-0.354 0-1.086 0.010-1.46 0.026-3.276-2.468-6.804-4.592-10.322-6.676-0.538-0.364-1.612-1.080-2.156-1.444l-0.952 0.18-0.020-1.398c-0.486 0.030-1.474 0.112-1.972 0.148l-0.122-0.952c-1.228-0.578-2.442-1.168-3.636-1.762l-0.122-1.014c-0.482 0.072-1.47 0.184-1.956 0.262l0.026-1.030c-1.218-0.548-2.432-1.080-3.614-1.628l-0.056-0.646c-1.172-0.588-2.32-1.172-3.45-1.752-0.036-0.532-0.108-1.598-0.138-2.124 2.918-0.144 5.836-0.21 8.78-0.184 65.198 0.102 130.38-0.072 195.568 0.092 0.25 30.402 0.030 60.82 0.102 91.224-0.24 11.816 0.542 23.68-0.476 35.45-5.128-1.268-9.008-5.056-13.606-7.38zM257.29 606.424c14.1 0.25 29.072 0.040 41.64-7.214 0.43 0.010 1.29 0.046 1.716 0.062l-0.128-0.856c3.784-1.972 7.056-4.766 10.25-7.568 0.302-0.338 0.906-1.008 1.204-1.342 1.576-1.868 3.148-3.728 4.73-5.596 0.518-0.958 1.044-1.936 1.572-2.898 0.712-1.060 1.428-2.124 2.156-3.194-0.010-0.286-0.046-0.876-0.056-1.162 1.158-2.212 2.16-4.52 3.276-6.768 0.040-0.808 0.112-2.426 0.164-3.24l0.994 0.102c0.138-2.124 0.302-4.25 0.522-6.38 1.808-6.978 0.83-14.3 0.68-21.412l-0.752 0.010c-0.112-2.11-0.25-4.204-0.378-6.312-1.034-2.75-1.832-5.586-3.124-8.222-0.066-0.348-0.18-1.044-0.24-1.378-1.438-2.586-2.8-5.202-4.218-7.798-2.934-3.978-6.026-7.896-10-10.896-1.644-1.132-3.24-2.34-4.808-3.578l-0.302-0.010c-3.368-2.12-6.984-3.88-10.772-5.084l-0.046-0.43c-2.974-0.364-5.826-1.24-8.602-2.274-3.476-0.236-6.978-0.44-10.352-1.342-64.328-0.43-128.66 0.194-192.988-0.312 0.010-0.21 0.026-0.614 0.030-0.824-2.35-0.286-4.66-1.008-6.508-2.524-0.4 0.046-1.168 0.138-1.556 0.184l-0.010-1.368-0.926 0.138c-3.932-3.348-6.994-7.506-9.37-12.072-0.676-1.972-1.342-3.932-1.904-5.954-2.012-7.962-1.32-16.23-1.424-24.366-0.082-17.182 0.138-34.376-0.138-51.558-15.144-0.2-30.274-0.062-45.42-0.072-0.266 20.286-0.036 40.566-0.174 60.856 0.174 5.048-0.24 10.184 0.83 15.156 0.286 1.556 0.558 3.092 0.814 4.644 0.486 1.556 0.968 3.112 1.47 4.67 0.952 3.046 2.248 5.964 3.676 8.816 1.848 3.548 4.096 6.86 6.498 10.056l0.896-0.010-0.296 0.998c0.64 0.45 1.904 1.356 2.544 1.808l-0.146 1.042 0.922-0.338c0.282 0.384 0.84 1.136 1.116 1.52 2.258 1.844 4.542 3.686 6.804 5.534 0.39-0.036 1.158-0.112 1.556-0.148l0.252 0.998c1.306 0.568 2.636 1.132 3.974 1.7 1.49 0.65 3 1.264 4.506 1.904 4.952 1.296 9.964 2.636 15.144 2.412 61.036 0.066 122.072 0.006 183.096 0.020 3.906 0.122 7.946-0.45 11.75 0.752 1.832 0.436 3.702 0.814 5.534 1.326 6.108 2.688 11.198 7.506 13.932 13.624 0.83 2.324 1.658 4.67 2.6 6.964 0.164 2.176 0.302 4.368 0.4 6.544 0.204-0.046 0.646-0.138 0.866-0.184-0.010 3.804-0.010 7.604-0.062 11.408l-0.844-0.026c-0.082 1.874-0.21 3.768-0.312 5.626-0.518 1.428-1.030 2.852-1.496 4.29-0.476 1.204-0.994 2.396-1.53 3.568-0.138 0.542-0.44 1.644-0.588 2.192-0.83 0.948-1.634 1.9-2.412 2.868l-0.286 0.134c-0.706 0.958-1.392 1.92-2.074 2.882-0.374 0.226-1.116 0.66-1.48 0.88-2.11 1.818-4.392 3.558-7.266 3.85-0.010 0.312-0.062 0.926-0.076 1.24-1.776 0.174-3.548 0.354-5.284 0.568-1.438 0.45-2.908 0.926-4.418 0.88-80.18 0.046-160.368-0.046-240.548 0.062-0.040 7.46-0.102 14.93 0.072 22.394 81.708 0.058 163.424 0.002 245.128 0.028zM538.214 606.362l-0.046 0.728c46.182-0.2 92.38 0 138.562-0.092 0.926-0.272 2.776-0.778 3.706-1.044-0.138-7.29 0.026-14.582-0.102-21.868-37.898-0.23-75.796 0.026-113.694-0.128-6.174-0.266-12.478 0.728-18.54-0.804-3.778-0.604-7.322-2.038-10.66-3.846-4.132-3.062-7.394-7.142-9.518-11.822-0.686-2.048-1.368-4.096-2.182-6.104-0.184-1.542-0.328-3.088-0.466-4.634-1.132-3.722-0.866-7.64-0.906-11.474 0.036-31.248-0.010-62.494 0.026-93.748-0.072-5.36-0.026-10.772-1.24-16.030l-0.706 0.23c-0.164-1.684-0.328-3.394-0.466-5.1-3.476-10.424-9.452-20.162-18.53-26.588l-0.112-0.788c-0.486 0.036-1.444 0.122-1.92 0.148l-0.072-1.030c-1.854-0.948-3.656-1.956-5.458-2.99-1.096-0.44-2.176-0.906-3.24-1.368-1.782-0.742-3.64-1.342-5.474-1.848l0.164-0.538c-16.194-3.942-32.926-2.498-49.424-2.76-40.632 0.134-81.28-0.24-121.908 0.184-0.108 7.316 0.026 14.622-0.082 21.934l1.204-0.25-0.204 1.24c44.616 0.076 89.232-0.010 133.852 0.040 4.050-0.168 7.93 1.080 11.71 2.422 2.442 1.438 4.736 3.124 6.974 4.894 2.908 3.036 4.946 6.728 6.564 10.588 2.678 6.712 2.186 13.942 2.376 20.998 0.39 2.688 0.404 5.412 0.354 8.11-1.132 7.322-0.006 14.714 0 22.056-0.456 3.85-0.332 7.706 0.046 11.55-0.844 3.824-0.216 7.732-0.348 11.596 0.302 2.672 0.364 5.392 0.302 8.080-1.122 9.256 0.4 18.56-0.128 27.832-0.466 2.688-0.44 5.422 0.122 8.084 0.18 3.128 0.216 6.302 1.070 9.338 0.226 1.71 0.436 3.43 0.64 5.14l0.676-0.030c0.302 1.746 0.656 3.496 1.168 5.202 1.306 3.246 2.8 6.41 4.46 9.502 1.464 2.294 3.124 4.46 4.92 6.512 0.338 0.302 1.024 0.912 1.356 1.224l-0.24 0.466c1.080 0.962 2.17 1.94 3.292 2.872 3.276 2.796 6.686 5.484 10.68 7.178l0.21 0.43c2.652 1.030 5.294 2.11 8.048 2.904 0.010 0.184 0.036 0.558 0.046 0.752 1.168 0.046 3.512 0.138 4.68 0.184l-0.236 0.85c1.808 0.216 3.614 0.45 5.448 0.68 4.348 0.89 8.802 0.95 13.246 0.936z" />
<glyph unicode="&#xe012;" d="M579.86 53.304l397.174 705.828c33.142 34.392 33.142 90.158 0 124.554h-914.36c-33.132-34.392-33.132-90.158 0-124.554l397.178-705.828c33.132-34.39 86.866-34.39 120.008 0z" />
<glyph unicode="&#xe013;" d="M955.842 960h-885.984c-37.638 0-68.154-30.562-68.154-68.264v-887.46c0-37.75 30.51-68.276 68.152-68.276h885.986c37.678 0 68.158 30.526 68.158 68.276v887.46c0 37.702-30.474 68.264-68.158 68.264zM828.058 369.070h-236.406v-236.794h-157.604v236.794h-236.396v157.87h236.396v236.79h157.608v-236.79h236.406v-157.87z" />
<glyph unicode="&#xe014;" d="M706.432 291.072l-36.138-36.138-159.146 160.554-160.512-160.554-36.822 36.138 159.83 159.872-159.874 160.512 36.822 35.456 160.512-161.238 159.146 161.238 36.138-35.456-160.512-160.512 160.556-159.872z" />
<glyph unicode="&#xe015;" d="M1019.202 750.966c0 93.446-225.93 169.236-504.658 169.236-278.692 0-504.628-75.792-504.628-169.236 0-1.986 0.24-3.958 0.446-5.934-0.088-0.472-0.446-0.62-0.446-1.214 0-8.95 0-23.818 0-33.024 0-9.232 4.362-21.14 9.688-26.486 5.33-5.324 19.394-19.446 31.288-31.37l364.83-365.87c0-120.418 0-267.33 0-272.338 0-8.524 16.092-44.176 98.842-44.176 82.724 0 98.816 33.496 98.816 44.176 0 6.282 0 153.078 0 273.1l368.712 369.050c11.884 11.924 25.104 25.134 29.378 29.394 4.224 4.264 7.726 14.034 7.726 21.734s0 22.58 0 33.034c0 0.926-0.456 1.28-0.62 2.002 0.37 2.632 0.626 5.274 0.626 7.922zM514.544 842.742c250.368 0 393.042-60.18 423.536-91.776-30.494-31.61-173.158-91.776-423.536-91.776-250.358 0-393.012 60.18-423.496 91.776 30.486 31.61 173.138 91.776 423.496 91.776z" />
<glyph unicode="&#xe016;" d="M958.628 958.438h-888.704c-37.754 0-68.362-30.612-68.362-68.362v-888.704c0-37.786 30.612-68.368 68.362-68.368h888.704c37.786 0 68.368 30.582 68.368 68.368v888.704c0 37.75-30.582 68.362-68.368 68.362zM830.448 366.68h-632.35v158.084h632.346v-158.084z" />
<glyph unicode="&#xe017;" d="M938.414 830.086h-509.958c-44.422 0-80.82-36.404-80.82-80.794v-5.064c0-44.426 36.398-80.794 80.82-80.794h509.962c44.396 0 80.82 36.372 80.82 80.794v5.064c-0.004 44.39-36.428 80.794-80.824 80.794zM938.414 530.462h-509.958c-44.422 0-80.82-36.372-80.82-80.794v-5.032c0-44.416 36.398-80.794 80.82-80.794h509.962c44.396 0 80.82 36.372 80.82 80.794v5.032c-0.004 44.422-36.428 80.794-80.824 80.794zM938.414 230.902h-509.958c-44.422 0-80.82-36.428-80.82-80.82v-5.038c0-44.452 36.398-80.82 80.82-80.82h509.962c44.396 0 80.82 36.372 80.82 80.82v5.038c-0.004 44.386-36.428 80.82-80.824 80.82zM233.58 831.78l-120.878-0.322v-598.922h-107.936l228.814-168.316z" />
<glyph unicode="&#xe018;" d="M996.46 658.934c27.77 30.376 15.888 55.204-26.374 55.204h-917.186c-42.214 0-53.104-23.982-24.176-53.304l450.99-457.544c28.928-29.276 75.238-28.472 102.912 1.9l413.834 453.744z" />
<glyph unicode="&#xe019;" d="M153.866 431.698l166.636-153.488 1.054 1.054 356.3-323.88c0 0 96.614-41.994 149.616 11.756 53.012 53.74 10.27 148.214 10.27 148.214l-356.148 323.748 338.904 338.462c0 0 55.378 74.956-15.248 146.554-70.626 71.608-151.388 6.932-151.388 6.932l-499.996-499.352z" />
<glyph unicode="&#xe01a;" d="M926.934 845.482h-832.854c-48.086 0-87.466-39.382-87.466-87.466v-5.462c0-48.086 39.382-87.466 87.466-87.466h832.854c48.086 0 87.466 39.382 87.466 87.466v5.462c0 48.086-39.382 87.466-87.466 87.466zM926.934 521.174h-832.854c-48.086 0-87.466-39.382-87.466-87.466v-5.462c0-48.086 39.382-87.466 87.466-87.466h832.854c48.086 0 87.466 39.382 87.466 87.466v5.462c0 48.084-39.382 87.466-87.466 87.466zM926.934 196.822h-832.854c-48.086 0-87.466-39.382-87.466-87.466v-5.462c0-48.086 39.382-87.466 87.466-87.466h832.854c48.086 0 87.466 39.382 87.466 87.466v5.462c0 48.084-39.382 87.466-87.466 87.466z" />
<glyph unicode="&#xe01b;" d="M470.16-12.002h96.726v-48.362h-96.726zM373.432 181.464h290.232v-48.364h-290.232zM373.432 84.736h290.232v-48.364h-290.232zM857.026 616.796c0 186.982-151.562 338.554-338.554 338.554-186.942 0-338.524-151.572-338.524-338.554 0-134.984 79.206-251.136 193.506-305.542v-81.428h290.212v81.52c114.206 54.406 193.36 170.456 193.36 305.45z" />
<glyph unicode="&#xe01c;" d="M489.942 457.6l351.574 319.616c0 0 42.198 93.27-10.154 146.304-52.31 53.034-147.712 11.606-147.712 11.606l-351.704-319.744-1.066 1.024-164.48-151.51 157.824-157.91 0.17 0.128 335.616-335.146c0 0 79.744-63.83 149.462 6.826 69.718 70.698 15.062 144.682 15.062 144.682l-334.592 334.124z" />
<glyph unicode="&#xe01d;" d="M514.148 554.296l-104.732-114.204c0-62.99 46.904-114.204 104.732-114.204 57.514 0 104.264 51.214 104.264 114.204 0.042 62.948-46.708 114.204-104.264 114.204zM514.19 736.968c-309.162 0-471.524-256.342-471.524-297.032s162.36-297.032 471.524-297.032c309.078 0 470.898 256.342 470.898 297.032s-161.892 297.032-470.898 297.032zM514.148 211.612c-115.726 0-209.508 102.428-209.508 228.522 0 126.18 93.782 228.68 209.508 228.68 115.342 0 209.194-102.472 209.194-228.68-0.028-126.064-93.81-228.522-209.194-228.522z" />
<glyph unicode="&#xe01e;" d="M1017.472 35.712l-412.202 413.354 412.202 411.008-92.246 93.398-412.202-412.202-410.966 412.202-93.44-93.398 412.202-411.008-412.202-411.008 93.398-93.398 411.008 411.008 412.202-411.008 92.246 91.052z" />
<glyph unicode="&#xe01f;" d="M13.772 449.116c0-280.044 222.711-507.065 497.439-507.065s497.439 227.021 497.439 507.065c0 280.044-222.711 507.065-497.439 507.065-274.728 0-497.439-227.021-497.439-507.065zM370.402 257.894c0 19.466 0 361.164 0 374.59 0 17.418 20.060 30.372 39.896 20.184 15.892-8.162 333.486-172.83 360.592-186.92 17.798-9.256 17.5-31.314 0-40.57-19.508-10.332-338.31-175.852-361.4-187.352-16.908-8.44-39.088 0.878-39.088 20.068z" />
<glyph unicode="&#xe020;" d="M192 832l640-384-640-384z" />
<glyph unicode="&#xe021;" d="M128 832h320v-768h-320zM576 832h320v-768h-320z" />
<glyph unicode="&#xe022;" d="M890.040 37.96c-12.286 0-24.568 4.686-33.942 14.058-18.744 18.746-18.744 49.136 0 67.882 87.638 87.642 135.904 204.16 135.904 328.1 0 123.938-48.266 240.458-135.904 328.098-18.744 18.746-18.744 49.138 0 67.882 18.744 18.744 49.138 18.744 67.882 0 105.77-105.772 164.022-246.4 164.022-395.98 0-149.582-58.252-290.208-164.022-395.98-9.372-9.374-21.656-14.060-33.94-14.060zM719.53 128.47c-12.286 0-24.568 4.686-33.942 14.058-18.744 18.744-18.744 49.136 0 67.882 131.006 131.006 131.006 344.17 0 475.176-18.744 18.746-18.744 49.138 0 67.882 18.744 18.742 49.138 18.744 67.882 0 81.594-81.592 126.53-190.076 126.53-305.468 0-115.39-44.936-223.876-126.53-305.47-9.372-9.374-21.656-14.060-33.94-14.060zM549.020 218.98c-12.286 0-24.568 4.686-33.942 14.058-18.746 18.746-18.746 49.136 0 67.882 81.1 81.1 81.1 213.058 0 294.156-18.746 18.746-18.746 49.138 0 67.882 18.746 18.744 49.136 18.744 67.882 0 118.53-118.53 118.53-311.392 0-429.922-9.372-9.37-21.656-14.056-33.94-14.056zM401.332 881.332c25.668 25.668 46.668 16.968 46.668-19.332v-828c0-36.3-21-44.998-46.668-19.33l-241.332 241.33h-160v384h160l241.332 241.332z" horiz-adv-x="1088" />
<glyph unicode="&#xe023;" d="M719.53 128.47c-12.286 0-24.568 4.686-33.942 14.058-18.744 18.744-18.744 49.136 0 67.882 131.006 131.006 131.006 344.17 0 475.176-18.744 18.746-18.744 49.138 0 67.882 18.744 18.742 49.138 18.744 67.882 0 81.594-81.592 126.53-190.076 126.53-305.468 0-115.39-44.936-223.876-126.53-305.47-9.372-9.374-21.656-14.060-33.94-14.060zM549.020 218.98c-12.286 0-24.568 4.686-33.942 14.058-18.746 18.746-18.746 49.136 0 67.882 81.1 81.1 81.1 213.058 0 294.156-18.746 18.746-18.746 49.138 0 67.882 18.746 18.744 49.136 18.744 67.882 0 118.53-118.53 118.53-311.392 0-429.922-9.372-9.37-21.656-14.056-33.94-14.056zM401.332 881.332c25.668 25.668 46.668 16.968 46.668-19.332v-828c0-36.3-21-44.998-46.668-19.33l-241.332 241.33h-160v384h160l241.332 241.332z" />
<glyph unicode="&#xe024;" d="M549.020 218.98c-12.286 0-24.568 4.686-33.942 14.058-18.746 18.746-18.746 49.136 0 67.882 81.1 81.1 81.1 213.058 0 294.156-18.746 18.746-18.746 49.138 0 67.882 18.746 18.744 49.136 18.744 67.882 0 118.53-118.53 118.53-311.392 0-429.922-9.372-9.37-21.656-14.056-33.94-14.056zM401.332 881.332c25.668 25.668 46.668 16.968 46.668-19.332v-828c0-36.3-21-44.998-46.668-19.33l-241.332 241.33h-160v384h160l241.332 241.332z" />
<glyph unicode="&#xe025;" d="M401.332 881.332c25.668 25.668 46.668 16.968 46.668-19.332v-828c0-36.3-21-44.998-46.668-19.33l-241.332 241.33h-160v384h160l241.332 241.332z" />
<glyph unicode="&#xe026;" d="M401.332 881.332c25.668 25.668 46.668 16.968 46.668-19.332v-828c0-36.3-21-44.998-46.668-19.33l-241.332 241.33h-160v384h160l241.332 241.332zM960 340.852v-84.852h-84.852l-107.148 107.148-107.148-107.148h-84.852v84.852l107.148 107.148-107.148 107.148v84.852h84.852l107.148-107.148 107.148 107.148h84.852v-84.852l-107.148-107.148z" />
<glyph unicode="&#xe027;" d="M1024 960v-384l-138.26 138.26-212-212-107.48 107.48 212 212-138.26 138.26zM245.74 821.74l212-212-107.48-107.48-212 212-138.26-138.26v384h384zM885.74 181.74l138.26 138.26v-384h-384l138.26 138.26-212 212 107.48 107.48zM457.74 286.26l-212-212 138.26-138.26h-384v384l138.26-138.26 212 212z" />
<glyph unicode="&#xe028;" d="M64 384h384v-384l-138.26 138.26-202-202-107.48 107.48 202 202zM821.74 245.74l202-202-107.48-107.48-202 202-138.26-138.26v384h384zM960 512h-384v384l138.26-138.26 202 202 107.48-107.48-202-202zM309.74 757.74l138.26 138.26v-384h-384l138.26 138.26-202 202 107.48 107.48z" />
<glyph unicode="&#xe029;" d="M1024 576h-384l143.53 143.53c-72.53 72.526-168.96 112.47-271.53 112.47-102.57 0-199-39.944-271.53-112.47-72.526-72.53-112.47-168.96-112.47-271.53 0-102.57 39.944-199 112.47-271.53 72.53-72.526 168.96-112.47 271.53-112.47 102.57 0 199 39.944 271.528 112.472 6.056 6.054 11.86 12.292 17.456 18.668l96.32-84.282c-93.846-107.166-231.664-174.858-385.304-174.858-282.77 0-512 229.23-512 512 0 282.77 229.23 512 512 512 141.386 0 269.368-57.326 362.016-149.984l149.984 149.984v-384z" />
<glyph unicode="&#xe600;" d="M970.348 524.375h-45.778c-21.038 0-43.351 16.466-49.562 36.547l-26.332 63.969c-9.912 18.483-5.821 45.819 8.95 60.646l32.538 32.512c14.899 14.863 14.899 39.168 0 54.067l-54.093 53.996c-14.822 14.828-39.122 14.828-53.96 0l-32.599-32.522c-14.838-14.858-42.209-18.893-60.692-8.955l-63.841 26.281c-20.050 6.236-36.48 28.513-36.48 49.556v45.839c0 20.977-17.229 38.205-38.272 38.205h-76.365c-21.002 0-38.236-17.229-38.236-38.205v-45.839c0-21.043-16.399-43.32-36.449-49.556l-63.898-26.281c-18.611-9.938-45.85-5.944-60.713 8.955l-32.573 32.522c-14.868 14.828-39.107 14.828-53.965 0l-54.006-54.001c-14.935-14.868-14.935-39.199 0-54.031l32.42-32.548c14.868-14.828 18.985-42.163 8.975-60.646l-26.271-64.005c-6.303-20.106-28.529-36.506-49.556-36.506h-45.875c-21.038 0-38.236-17.132-38.236-38.17v-76.416c0-20.972 17.198-38.17 38.236-38.17h45.875c21.028-0.061 43.254-16.492 49.454-36.5l26.373-63.939c9.979-18.55 5.888-45.921-8.975-60.739l-32.486-32.492c-14.863-14.828-14.863-39.132 0-54.088l54.067-53.97c14.858-14.899 39.096-14.899 53.965 0l32.573 32.481c14.828 14.838 42.102 18.862 60.513 8.832l64.102-26.348c20.055-6.129 36.449-28.452 36.449-49.49v-45.711c0-20.972 17.234-38.17 38.236-38.17h76.37c21.038 0 38.272 17.198 38.272 38.17v45.711c0 21.038 16.43 43.361 36.48 49.49l64.041 26.348c18.468 10.030 45.778 6.011 60.672-8.832l32.42-32.481c14.838-14.899 39.142-14.899 53.96 0l54.098 53.97c14.899 14.961 14.899 39.26 0 54.088l-32.538 32.492c-14.771 14.822-18.862 42.189-8.95 60.739l26.332 63.939c6.211 20.009 28.652 36.439 49.562 36.439h45.778c21.028 0 38.17 17.198 38.17 38.231v76.416c-0.005 21.038-17.147 38.17-38.18 38.17zM703.14 448.031c0-105.503-85.509-190.925-190.986-190.925-105.528 0-191.043 85.422-191.043 190.925 0 105.498 85.514 190.991 191.043 190.991 105.477 0 190.986-85.494 190.986-190.991z" />
<glyph unicode="&#xe601;" d="M96.142 151.515c66.595-91.952 162.974-160.62 272.186-192.126 106.447-30.71 222.198-25.872 325.578 13.99 82.85 31.952 156.712 85.818 212.7 154.718 56.701 69.775 94.356 154.278 108.069 243.153 15.894 103.078-0.223 210.242-46.367 303.821-45.447 92.145-118.769 169.029-208.485 219.062-98.497 54.935-214.827 76.963-326.384 60.075-48.425-7.331-96.726-23.369-140.995-44.126-40.065-18.788-77.735-42.662-111.611-71.146-67.411-56.686-118.443-131.117-148.401-213.848-7.781-21.484-14.168-43.473-19.184-65.764-5.56-24.71-10.388-50.122-12.085-75.326-4.249-63.087 3.873-125.724 22.474-186.091 16.117-52.283 40.648-101.905 72.506-146.392 0.678-0.935-37.764 52.734 0 0zM590.888 152.41c-32.12 0-64.24 0-96.365 0-16.231 0-32.461 0-48.692 0-1.959 0-3.918 0-5.882 0-2.597 0-3.928-1.113-3.928 1.944 0 3.883 0 7.762 0 11.645 0 8.41 0 16.814 0 25.229 0 64.749 0 129.494 0 194.243 0 32.634 0 65.264 0 97.898 0 7.88 0 15.756 0 23.636 0 3.948 0 7.895 0 11.843 4.556 0 9.107 0 13.663 0 16.137 0 32.268 0 48.405 0 16.062 0 32.125 0 48.187 0 7.737 0 15.474 0 23.211 0 3.883 0 7.767 0 11.65 0 1.949 0 3.893 0 5.847 0 4.096 0 3.898 0.173 3.898-3.923 0-32.61 0-65.219 0-97.829 0.005-88.232 0.005-176.459 0.005-264.687zM512.475 765.702c46.060 0.514 86.179-39.159 86.056-85.234-0.124-46.016-40.124-84.087-85.749-83.879-45.808 0.208-83.3 37.754-83.676 83.518-0.376 45.536 36.28 84.319 81.984 85.566 0.46 0.015 0.92 0.020 1.385 0.030 45.897 0.514-46.679-0.524 0 0zM485.777-60.062c-7.331 0.351-14.623 0.871-21.88 1.529 7.252-0.658 14.544-1.182 21.88-1.529zM591.348-54.235c-2.023-0.317-4.047-0.638-6.080-0.93 2.033 0.292 4.056 0.604 6.080 0.93zM462.967-58.455c-29.389 2.716-58.14 7.935-86.016 15.439 27.806-7.509 56.548-12.728 86.016-15.439zM551.575-58.999c-5.887-0.465-11.798-0.841-17.739-1.103 5.936 0.267 11.858 0.633 17.739 1.103zM572.085-56.931c-4.244-0.51-8.509-0.975-12.783-1.38 4.279 0.406 8.538 0.866 12.783 1.38zM510.333-60.661c6.114 0 12.194 0.143 18.259 0.361-6.5-0.223-12.99-0.366-19.446-0.346 0.396 0 0.791-0.015 1.187-0.015zM507.202-60.621c-7.079 0.049-14.133 0.218-21.153 0.549 7.015-0.326 14.064-0.51 21.153-0.549zM14.509 331.521c-3.136 13.297-5.877 26.688-8.568 40.089 12.476-81.277 44.146-156.217 90.206-220.091-37.769 52.729-65.937 113.427-81.638 180.001zM107.228 136.709c-3.062 3.962-6.090 7.94-9.038 12.001 2.958-4.042 5.966-8.049 9.038-12.001zM117.795 123.565c-0.96 1.158-1.919 2.32-2.869 3.488 0.95-1.167 1.905-2.335 2.869-3.488zM289.54-10.549c-0.97 0.465-1.929 0.95-2.894 1.425 0.965-0.475 1.919-0.965 2.894-1.425zM375.378-42.59c-6.48 1.766-12.906 3.661-19.288 5.674 6.377-2.018 12.807-3.898 19.288-5.674zM896.505 783.308c-81.866 94.668-197.963 158.888-329.045 173.491 1.731-0.604 3.468-1.123 5.249-1.35 130.998-16.755 243.949-80.525 323.797-172.141zM353.414-36.045c-5.921 1.909-11.803 3.908-17.631 6.025 5.827-2.122 11.709-4.111 17.631-6.025zM332.028-28.62c-4.581 1.707-9.122 3.497-13.648 5.328 4.516-1.835 9.063-3.616 13.648-5.328zM311.801-20.606c-4.324 1.82-8.598 3.73-12.862 5.664 4.259-1.939 8.543-3.834 12.862-5.664zM398.158 946.901c9.275 2.221 18.61 4.215 27.955 6.144-223.4-37.106-397.742-219.289-422.942-446.499 0.623 1.415 1.163 2.839 1.36 4.314 29.805 219.225 178.967 384.633 393.627 436.041z" />
<glyph unicode="&#xe602;" d="M512 960c-282.784 0-512-229.216-512-512s229.216-512 512-512 512 229.216 512 512-229.216 512-512 512zM498.752 333.328l-105.456-105.472 87.904-87.904h-281.28v281.264l87.888-87.888 105.488 105.488c19.408 19.408 50.896 19.408 70.32 0l35.152-35.168c19.424-19.392 19.424-50.912-0.016-70.32zM824.064 482.816l-87.888 87.904-105.472-105.488c-19.424-19.408-50.912-19.408-70.32 0l-35.168 35.152c-19.408 19.424-19.408 50.928 0 70.336l105.488 105.472-87.888 87.904h281.248v-281.28z" />
<glyph unicode="&#xe603;" d="M477.027 819.285c10.489 17.818 25.167 28.494 44.215 28.494 18.963 0 33.78-10.675 44.264-28.494l428.414-718.557c9.532-16.778 13.728-29.55 13.728-44.419 0-34.683-27.453-48.408-68.612-48.408h-835.547c-41.214 0-68.612 13.728-68.612 48.408 0 14.868 4.248 27.641 13.777 44.419l428.38 718.557zM161.51 109.115h719.564l-359.832 612.003-359.73-612.003zM464.307 524.877c-3.19 31.631 25.356 63.278 56.95 63.278 31.631 0 60.088-31.647 56.95-63.278l-18.909-190.99c-2.147-21.059-15.825-41.214-38.024-41.214-22.151 0-35.789 20.155-37.974 41.214l-18.996 190.99zM521.242 248.441c31.631 0 56.95-25.356 56.95-56.984 0-31.647-25.305-57.002-56.95-57.002-31.597 0-56.95 25.356-56.95 57.002 0.014 31.647 25.356 56.984 56.95 56.984z" />
<glyph unicode="&#xf000;" d="M0 960l1024-1024h-1024z" horiz-adv-x="0" />
<glyph unicode="&#xf001;" d="M0 960l1024-1024h-1024z" horiz-adv-x="0" />
</font>
</defs>
</svg>
